<mxfile host="65bd71144e">
    <diagram id="jaFe8nr2Rn6aOnbZ0olX" name="Page-1">
        <mxGraphModel dx="3904" dy="3483" grid="1" gridSize="10" guides="1" tooltips="1" connect="1" arrows="1" fold="1" page="1" pageScale="1" pageWidth="1920" pageHeight="1200" math="0" shadow="0">
            <root>
                <mxCell id="0"/>
                <mxCell id="151" value="Frames" style="" parent="0"/>
                <mxCell id="152" value="" style="rounded=0;whiteSpace=wrap;html=1;labelBorderColor=none;fontFamily=Times New Roman;fontSize=20;fillColor=none;" parent="151" vertex="1">
                    <mxGeometry x="630" y="-1840" width="300" height="360" as="geometry"/>
                </mxCell>
                <mxCell id="154" value="" style="rounded=0;whiteSpace=wrap;html=1;labelBorderColor=none;fontFamily=Times New Roman;fontSize=20;fillColor=none;" parent="151" vertex="1">
                    <mxGeometry x="960" y="-1840" width="260" height="360" as="geometry"/>
                </mxCell>
                <mxCell id="155" value="" style="rounded=0;whiteSpace=wrap;html=1;labelBorderColor=none;fontFamily=Times New Roman;fontSize=20;fillColor=none;" parent="151" vertex="1">
                    <mxGeometry x="1250" y="-1840" width="260" height="360" as="geometry"/>
                </mxCell>
                <mxCell id="217" value="" style="rounded=0;whiteSpace=wrap;html=1;labelBorderColor=none;fontFamily=Times New Roman;fontSize=20;fillColor=none;" parent="151" vertex="1">
                    <mxGeometry x="630" y="-1280" width="300" height="360" as="geometry"/>
                </mxCell>
                <mxCell id="218" value="" style="rounded=0;whiteSpace=wrap;html=1;labelBorderColor=none;fontFamily=Times New Roman;fontSize=20;fillColor=none;" parent="151" vertex="1">
                    <mxGeometry x="960" y="-1280" width="260" height="360" as="geometry"/>
                </mxCell>
                <mxCell id="219" value="" style="rounded=0;whiteSpace=wrap;html=1;labelBorderColor=none;fontFamily=Times New Roman;fontSize=20;fillColor=none;" parent="151" vertex="1">
                    <mxGeometry x="1250" y="-1280" width="260" height="360" as="geometry"/>
                </mxCell>
                <mxCell id="499" value="Pair: 6 unitÃ©s par ligne" style="shape=table;startSize=50;container=1;collapsible=0;childLayout=tableLayout;fontStyle=1;align=center;pointerEvents=1;labelBackgroundColor=none;labelBorderColor=none;fontFamily=Times New Roman;fontSize=20;strokeColor=#36393d;fillColor=#eeeeee;" parent="151" vertex="1">
                    <mxGeometry x="-1880" y="400" width="640" height="410" as="geometry"/>
                </mxCell>
                <mxCell id="505" value="" style="shape=partialRectangle;html=1;whiteSpace=wrap;collapsible=0;dropTarget=0;pointerEvents=0;fillColor=none;top=0;left=0;bottom=0;right=0;points=[[0,0.5],[1,0.5]];portConstraint=eastwest;labelBackgroundColor=#FFFFFF;labelBorderColor=none;fontFamily=Times New Roman;fontSize=16;strokeColor=default;" parent="499" vertex="1">
                    <mxGeometry y="50" width="640" height="360" as="geometry"/>
                </mxCell>
                <mxCell id="506" value="" style="shape=partialRectangle;html=1;whiteSpace=wrap;connectable=0;fillColor=none;top=0;left=0;bottom=0;right=0;overflow=hidden;pointerEvents=1;labelBackgroundColor=#FFFFFF;labelBorderColor=none;fontFamily=Times New Roman;fontSize=16;strokeColor=default;" parent="505" vertex="1">
                    <mxGeometry width="161" height="360" as="geometry">
                        <mxRectangle width="161" height="360" as="alternateBounds"/>
                    </mxGeometry>
                </mxCell>
                <mxCell id="507" value="" style="shape=partialRectangle;html=1;whiteSpace=wrap;connectable=0;fillColor=none;top=0;left=0;bottom=0;right=0;overflow=hidden;pointerEvents=1;labelBackgroundColor=#FFFFFF;labelBorderColor=none;fontFamily=Times New Roman;fontSize=16;strokeColor=default;" parent="505" vertex="1">
                    <mxGeometry x="161" width="159" height="360" as="geometry">
                        <mxRectangle width="159" height="360" as="alternateBounds"/>
                    </mxGeometry>
                </mxCell>
                <mxCell id="508" value="" style="shape=partialRectangle;html=1;whiteSpace=wrap;connectable=0;fillColor=none;top=0;left=0;bottom=0;right=0;overflow=hidden;pointerEvents=1;labelBackgroundColor=#FFFFFF;labelBorderColor=none;fontFamily=Times New Roman;fontSize=16;strokeColor=default;" parent="505" vertex="1">
                    <mxGeometry x="320" width="161" height="360" as="geometry">
                        <mxRectangle width="161" height="360" as="alternateBounds"/>
                    </mxGeometry>
                </mxCell>
                <mxCell id="509" style="shape=partialRectangle;html=1;whiteSpace=wrap;connectable=0;fillColor=none;top=0;left=0;bottom=0;right=0;overflow=hidden;pointerEvents=1;labelBackgroundColor=#FFFFFF;labelBorderColor=none;fontFamily=Times New Roman;fontSize=16;strokeColor=default;" parent="505" vertex="1">
                    <mxGeometry x="481" width="159" height="360" as="geometry">
                        <mxRectangle width="159" height="360" as="alternateBounds"/>
                    </mxGeometry>
                </mxCell>
                <mxCell id="516" value="&lt;p style=&quot;margin: 4px 0px 0px ; text-align: center&quot;&gt;&lt;b&gt;&lt;font style=&quot;font-size: 16px&quot;&gt;Last Row&amp;nbsp; = 1&lt;/font&gt;&lt;/b&gt;&lt;/p&gt;&lt;hr&gt;&lt;p style=&quot;margin: 0px ; margin-left: 8px&quot;&gt;&lt;br&gt;&lt;/p&gt;" style="verticalAlign=top;align=left;overflow=fill;fontSize=12;fontFamily=Helvetica;html=1;labelBorderColor=none;fillColor=none;" parent="151" vertex="1">
                    <mxGeometry x="-200" y="30" width="120" height="290" as="geometry"/>
                </mxCell>
                <mxCell id="517" value="&lt;p style=&quot;margin: 4px 0px 0px ; text-align: center&quot;&gt;&lt;b&gt;&lt;font style=&quot;font-size: 16px&quot;&gt;Last Row&amp;nbsp; = 2&lt;/font&gt;&lt;/b&gt;&lt;/p&gt;&lt;hr&gt;&lt;p style=&quot;margin: 0px ; margin-left: 8px&quot;&gt;&lt;br&gt;&lt;/p&gt;" style="verticalAlign=top;align=left;overflow=fill;fontSize=12;fontFamily=Helvetica;html=1;labelBorderColor=none;fillColor=none;" parent="151" vertex="1">
                    <mxGeometry x="-40" y="30" width="120" height="290" as="geometry"/>
                </mxCell>
                <mxCell id="518" value="&lt;p style=&quot;margin: 4px 0px 0px ; text-align: center&quot;&gt;&lt;b&gt;&lt;font style=&quot;font-size: 16px&quot;&gt;Last Row&amp;nbsp; = 3&lt;/font&gt;&lt;/b&gt;&lt;/p&gt;&lt;hr&gt;&lt;p style=&quot;margin: 0px ; margin-left: 8px&quot;&gt;&lt;br&gt;&lt;/p&gt;" style="verticalAlign=top;align=left;overflow=fill;fontSize=12;fontFamily=Helvetica;html=1;labelBorderColor=none;fillColor=none;" parent="151" vertex="1">
                    <mxGeometry x="120" y="30" width="120" height="290" as="geometry"/>
                </mxCell>
                <mxCell id="519" value="&lt;p style=&quot;margin: 4px 0px 0px ; text-align: center&quot;&gt;&lt;b&gt;&lt;font style=&quot;font-size: 16px&quot;&gt;Last Row&amp;nbsp; = 4&lt;/font&gt;&lt;/b&gt;&lt;/p&gt;&lt;hr&gt;&lt;p style=&quot;margin: 0px ; margin-left: 8px&quot;&gt;&lt;br&gt;&lt;/p&gt;" style="verticalAlign=top;align=left;overflow=fill;fontSize=12;fontFamily=Helvetica;html=1;labelBorderColor=none;fillColor=none;" parent="151" vertex="1">
                    <mxGeometry x="280" y="30" width="120" height="290" as="geometry"/>
                </mxCell>
                <mxCell id="583" value="Exemple: Cas Possibles" style="shape=table;startSize=40;container=1;collapsible=0;childLayout=tableLayout;fontStyle=1;align=center;pointerEvents=1;labelBackgroundColor=none;labelBorderColor=none;fontFamily=Times New Roman;fontSize=16;strokeColor=#36393d;fillColor=#eeeeee;" parent="151" vertex="1">
                    <mxGeometry x="-1880" y="890" width="481" height="280" as="geometry"/>
                </mxCell>
                <mxCell id="584" value="" style="shape=partialRectangle;html=1;whiteSpace=wrap;collapsible=0;dropTarget=0;pointerEvents=0;fillColor=none;top=0;left=0;bottom=0;right=0;points=[[0,0.5],[1,0.5]];portConstraint=eastwest;labelBackgroundColor=#FFFFFF;labelBorderColor=none;fontFamily=Times New Roman;fontSize=16;strokeColor=default;" parent="583" vertex="1">
                    <mxGeometry y="40" width="481" height="240" as="geometry"/>
                </mxCell>
                <mxCell id="585" value="" style="shape=partialRectangle;html=1;whiteSpace=wrap;connectable=0;fillColor=none;top=0;left=0;bottom=0;right=0;overflow=hidden;pointerEvents=1;labelBackgroundColor=#FFFFFF;labelBorderColor=none;fontFamily=Times New Roman;fontSize=16;strokeColor=default;" parent="584" vertex="1">
                    <mxGeometry width="161" height="240" as="geometry">
                        <mxRectangle width="161" height="240" as="alternateBounds"/>
                    </mxGeometry>
                </mxCell>
                <mxCell id="586" value="" style="shape=partialRectangle;html=1;whiteSpace=wrap;connectable=0;fillColor=none;top=0;left=0;bottom=0;right=0;overflow=hidden;pointerEvents=1;labelBackgroundColor=#FFFFFF;labelBorderColor=none;fontFamily=Times New Roman;fontSize=16;strokeColor=default;" parent="584" vertex="1">
                    <mxGeometry x="161" width="159" height="240" as="geometry">
                        <mxRectangle width="159" height="240" as="alternateBounds"/>
                    </mxGeometry>
                </mxCell>
                <mxCell id="587" value="" style="shape=partialRectangle;html=1;whiteSpace=wrap;connectable=0;fillColor=none;top=0;left=0;bottom=0;right=0;overflow=hidden;pointerEvents=1;labelBackgroundColor=#FFFFFF;labelBorderColor=none;fontFamily=Times New Roman;fontSize=16;strokeColor=default;" parent="584" vertex="1">
                    <mxGeometry x="320" width="161" height="240" as="geometry">
                        <mxRectangle width="161" height="240" as="alternateBounds"/>
                    </mxGeometry>
                </mxCell>
                <mxCell id="696" value="Exemple: Cas Possibles" style="shape=table;startSize=40;container=1;collapsible=0;childLayout=tableLayout;fontStyle=1;align=center;pointerEvents=1;labelBackgroundColor=none;labelBorderColor=none;fontFamily=Times New Roman;fontSize=16;strokeColor=#36393d;fillColor=#eeeeee;" parent="151" vertex="1">
                    <mxGeometry x="-1880" y="1240" width="480" height="320" as="geometry"/>
                </mxCell>
                <mxCell id="697" value="" style="shape=partialRectangle;html=1;whiteSpace=wrap;collapsible=0;dropTarget=0;pointerEvents=0;fillColor=none;top=0;left=0;bottom=0;right=0;points=[[0,0.5],[1,0.5]];portConstraint=eastwest;labelBackgroundColor=#FFFFFF;labelBorderColor=none;fontFamily=Times New Roman;fontSize=16;strokeColor=default;" parent="696" vertex="1">
                    <mxGeometry y="40" width="480" height="280" as="geometry"/>
                </mxCell>
                <mxCell id="698" value="" style="shape=partialRectangle;html=1;whiteSpace=wrap;connectable=0;fillColor=none;top=0;left=0;bottom=0;right=0;overflow=hidden;pointerEvents=1;labelBackgroundColor=#FFFFFF;labelBorderColor=none;fontFamily=Times New Roman;fontSize=16;strokeColor=default;" parent="697" vertex="1">
                    <mxGeometry width="160" height="280" as="geometry">
                        <mxRectangle width="160" height="280" as="alternateBounds"/>
                    </mxGeometry>
                </mxCell>
                <mxCell id="699" value="" style="shape=partialRectangle;html=1;whiteSpace=wrap;connectable=0;fillColor=none;top=0;left=0;bottom=0;right=0;overflow=hidden;pointerEvents=1;labelBackgroundColor=#FFFFFF;labelBorderColor=none;fontFamily=Times New Roman;fontSize=16;strokeColor=default;" parent="697" vertex="1">
                    <mxGeometry x="160" width="160" height="280" as="geometry">
                        <mxRectangle width="160" height="280" as="alternateBounds"/>
                    </mxGeometry>
                </mxCell>
                <mxCell id="700" value="" style="shape=partialRectangle;html=1;whiteSpace=wrap;connectable=0;fillColor=none;top=0;left=0;bottom=0;right=0;overflow=hidden;pointerEvents=1;labelBackgroundColor=#FFFFFF;labelBorderColor=none;fontFamily=Times New Roman;fontSize=16;strokeColor=default;" parent="697" vertex="1">
                    <mxGeometry x="320" width="160" height="280" as="geometry">
                        <mxRectangle width="160" height="280" as="alternateBounds"/>
                    </mxGeometry>
                </mxCell>
                <mxCell id="703" value="subFrame" style="" parent="0"/>
                <mxCell id="704" value="Marge&amp;nbsp;= 1.5" style="rounded=0;whiteSpace=wrap;html=1;labelBackgroundColor=none;labelBorderColor=none;fontFamily=Times New Roman;fontSize=16;strokeColor=#000000;strokeWidth=1;fillColor=#f5f5f5;fontColor=#000000;" vertex="1" parent="703">
                    <mxGeometry x="-1880" y="1280" width="160" height="40" as="geometry"/>
                </mxCell>
                <mxCell id="705" value="offset = 1.5" style="rounded=0;whiteSpace=wrap;html=1;labelBackgroundColor=none;labelBorderColor=none;fontFamily=Times New Roman;fontSize=16;strokeColor=#000000;strokeWidth=1;fillColor=#f5f5f5;fontColor=#333333;" vertex="1" parent="703">
                    <mxGeometry x="-1760" y="1180" width="160" height="40" as="geometry"/>
                </mxCell>
                <mxCell id="706" value="Marge&amp;nbsp;= 1" style="rounded=0;whiteSpace=wrap;html=1;labelBackgroundColor=none;labelBorderColor=none;fontFamily=Times New Roman;fontSize=16;strokeColor=#000000;strokeWidth=1;fillColor=#f5f5f5;fontColor=#000000;" vertex="1" parent="703">
                    <mxGeometry x="-1720" y="1280" width="160" height="40" as="geometry"/>
                </mxCell>
                <mxCell id="707" value="Marge = 0.5" style="rounded=0;whiteSpace=wrap;html=1;labelBackgroundColor=none;labelBorderColor=none;fontFamily=Times New Roman;fontSize=16;strokeColor=#000000;strokeWidth=1;fillColor=#f5f5f5;fontColor=#000000;" vertex="1" parent="703">
                    <mxGeometry x="-1560" y="1280" width="160" height="40" as="geometry"/>
                </mxCell>
                <mxCell id="1" style="" parent="0"/>
                <mxCell id="2" value="13" style="ellipse;whiteSpace=wrap;html=1;aspect=fixed;fontSize=24;fontStyle=1;fillColor=none;fontFamily=Times New Roman;" parent="1" vertex="1">
                    <mxGeometry x="780" y="-1640" width="40" height="40" as="geometry"/>
                </mxCell>
                <mxCell id="3" value="14" style="ellipse;whiteSpace=wrap;html=1;aspect=fixed;fontSize=24;fontStyle=1;fillColor=none;fontFamily=Times New Roman;" parent="1" vertex="1">
                    <mxGeometry x="780" y="-1600" width="40" height="40" as="geometry"/>
                </mxCell>
                <mxCell id="4" value="15" style="ellipse;whiteSpace=wrap;html=1;aspect=fixed;fontSize=24;fontStyle=1;fillColor=none;fontFamily=Times New Roman;" parent="1" vertex="1">
                    <mxGeometry x="820" y="-1680" width="40" height="40" as="geometry"/>
                </mxCell>
                <mxCell id="5" value="1" style="ellipse;whiteSpace=wrap;html=1;aspect=fixed;fontSize=24;fontStyle=1;fillColor=none;fontFamily=Times New Roman;" parent="1" vertex="1">
                    <mxGeometry x="700" y="-1720" width="40" height="40" as="geometry"/>
                </mxCell>
                <mxCell id="6" value="2" style="ellipse;whiteSpace=wrap;html=1;aspect=fixed;fontSize=24;fontStyle=1;fillColor=none;fontFamily=Times New Roman;" parent="1" vertex="1">
                    <mxGeometry x="700" y="-1680" width="40" height="40" as="geometry"/>
                </mxCell>
                <mxCell id="7" value="3" style="ellipse;whiteSpace=wrap;html=1;aspect=fixed;fontSize=24;fontStyle=1;fillColor=none;fontFamily=Times New Roman;" parent="1" vertex="1">
                    <mxGeometry x="700" y="-1640" width="40" height="40" as="geometry"/>
                </mxCell>
                <mxCell id="8" value="4" style="ellipse;whiteSpace=wrap;html=1;aspect=fixed;fontSize=24;fontStyle=1;fillColor=none;fontFamily=Times New Roman;" parent="1" vertex="1">
                    <mxGeometry x="700" y="-1600" width="40" height="40" as="geometry"/>
                </mxCell>
                <mxCell id="9" value="5" style="ellipse;whiteSpace=wrap;html=1;aspect=fixed;fontSize=24;fontStyle=1;fillColor=none;fontFamily=Times New Roman;" parent="1" vertex="1">
                    <mxGeometry x="740" y="-1760" width="40" height="40" as="geometry"/>
                </mxCell>
                <mxCell id="10" value="6" style="ellipse;whiteSpace=wrap;html=1;aspect=fixed;fontSize=24;fontStyle=1;fillColor=none;fontFamily=Times New Roman;" parent="1" vertex="1">
                    <mxGeometry x="740" y="-1720" width="40" height="40" as="geometry"/>
                </mxCell>
                <mxCell id="11" value="7" style="ellipse;whiteSpace=wrap;html=1;aspect=fixed;fontSize=24;fontStyle=1;fillColor=none;fontFamily=Times New Roman;" parent="1" vertex="1">
                    <mxGeometry x="740" y="-1680" width="40" height="40" as="geometry"/>
                </mxCell>
                <mxCell id="12" value="0" style="ellipse;whiteSpace=wrap;html=1;aspect=fixed;fontSize=24;fontStyle=1;fillColor=none;fontFamily=Times New Roman;" parent="1" vertex="1">
                    <mxGeometry x="700" y="-1760" width="40" height="40" as="geometry"/>
                </mxCell>
                <mxCell id="13" value="8" style="ellipse;whiteSpace=wrap;html=1;aspect=fixed;fontSize=24;fontStyle=1;fillColor=none;fontFamily=Times New Roman;" parent="1" vertex="1">
                    <mxGeometry x="740" y="-1640" width="40" height="40" as="geometry"/>
                </mxCell>
                <mxCell id="14" value="9" style="ellipse;whiteSpace=wrap;html=1;aspect=fixed;fontSize=24;fontStyle=1;fillColor=none;fontFamily=Times New Roman;" parent="1" vertex="1">
                    <mxGeometry x="740" y="-1600" width="40" height="40" as="geometry"/>
                </mxCell>
                <mxCell id="15" value="10" style="ellipse;whiteSpace=wrap;html=1;aspect=fixed;fontSize=24;fontStyle=1;fillColor=none;fontFamily=Times New Roman;" parent="1" vertex="1">
                    <mxGeometry x="780" y="-1760" width="40" height="40" as="geometry"/>
                </mxCell>
                <mxCell id="16" value="11" style="ellipse;whiteSpace=wrap;html=1;aspect=fixed;fontSize=24;fontStyle=1;fillColor=none;fontFamily=Times New Roman;" parent="1" vertex="1">
                    <mxGeometry x="780" y="-1720" width="40" height="40" as="geometry"/>
                </mxCell>
                <mxCell id="17" value="Taille: 16" style="shape=process;whiteSpace=wrap;html=1;backgroundOutline=1;fontFamily=Times New Roman;fontSize=20;" parent="1" vertex="1">
                    <mxGeometry x="840" y="-1920" width="480" height="60" as="geometry"/>
                </mxCell>
                <mxCell id="18" value="12" style="ellipse;whiteSpace=wrap;html=1;aspect=fixed;fontSize=24;fontStyle=1;fillColor=none;fontFamily=Times New Roman;" parent="1" vertex="1">
                    <mxGeometry x="780" y="-1680" width="40" height="40" as="geometry"/>
                </mxCell>
                <mxCell id="19" value="13" style="ellipse;whiteSpace=wrap;html=1;aspect=fixed;fontSize=24;fontStyle=1;fillColor=none;fontFamily=Times New Roman;" parent="1" vertex="1">
                    <mxGeometry x="200" y="-2100" width="40" height="40" as="geometry"/>
                </mxCell>
                <mxCell id="20" value="14" style="ellipse;whiteSpace=wrap;html=1;aspect=fixed;fontSize=24;fontStyle=1;fillColor=none;fontFamily=Times New Roman;" parent="1" vertex="1">
                    <mxGeometry x="200.00000000000006" y="-2060" width="40" height="40" as="geometry"/>
                </mxCell>
                <mxCell id="21" value="15" style="ellipse;whiteSpace=wrap;html=1;aspect=fixed;fontSize=24;fontStyle=1;fillColor=none;fontFamily=Times New Roman;" parent="1" vertex="1">
                    <mxGeometry x="360.00000000000006" y="-2330" width="40" height="40" as="geometry"/>
                </mxCell>
                <mxCell id="22" value="1" style="ellipse;whiteSpace=wrap;html=1;aspect=fixed;fontSize=24;fontStyle=1;fillColor=none;fontFamily=Times New Roman;" parent="1" vertex="1">
                    <mxGeometry x="120" y="-2160" width="40" height="40" as="geometry"/>
                </mxCell>
                <mxCell id="23" value="2" style="ellipse;whiteSpace=wrap;html=1;aspect=fixed;fontSize=24;fontStyle=1;fillColor=none;fontFamily=Times New Roman;" parent="1" vertex="1">
                    <mxGeometry x="120" y="-2120" width="40" height="40" as="geometry"/>
                </mxCell>
                <mxCell id="24" value="3" style="ellipse;whiteSpace=wrap;html=1;aspect=fixed;fontSize=24;fontStyle=1;fillColor=none;fontFamily=Times New Roman;" parent="1" vertex="1">
                    <mxGeometry x="120" y="-2080" width="40" height="40" as="geometry"/>
                </mxCell>
                <mxCell id="25" value="4" style="ellipse;whiteSpace=wrap;html=1;aspect=fixed;fontSize=24;fontStyle=1;fillColor=none;fontFamily=Times New Roman;" parent="1" vertex="1">
                    <mxGeometry x="120" y="-2040" width="40" height="40" as="geometry"/>
                </mxCell>
                <mxCell id="26" value="5" style="ellipse;whiteSpace=wrap;html=1;aspect=fixed;fontSize=24;fontStyle=1;fillColor=none;fontFamily=Times New Roman;" parent="1" vertex="1">
                    <mxGeometry x="120" y="-2000" width="40" height="40" as="geometry"/>
                </mxCell>
                <mxCell id="27" value="6" style="ellipse;whiteSpace=wrap;html=1;aspect=fixed;fontSize=24;fontStyle=1;fillColor=none;fontFamily=Times New Roman;" parent="1" vertex="1">
                    <mxGeometry x="160" y="-2200" width="40" height="40" as="geometry"/>
                </mxCell>
                <mxCell id="28" value="7" style="ellipse;whiteSpace=wrap;html=1;aspect=fixed;fontSize=24;fontStyle=1;fillColor=none;fontFamily=Times New Roman;" parent="1" vertex="1">
                    <mxGeometry x="160" y="-2160" width="40" height="40" as="geometry"/>
                </mxCell>
                <mxCell id="29" value="0" style="ellipse;whiteSpace=wrap;html=1;aspect=fixed;fontSize=24;fontStyle=1;fillColor=none;fontFamily=Times New Roman;" parent="1" vertex="1">
                    <mxGeometry x="120" y="-2200" width="40" height="40" as="geometry"/>
                </mxCell>
                <mxCell id="30" value="8" style="ellipse;whiteSpace=wrap;html=1;aspect=fixed;fontSize=24;fontStyle=1;fillColor=none;fontFamily=Times New Roman;" parent="1" vertex="1">
                    <mxGeometry x="160" y="-2120" width="40" height="40" as="geometry"/>
                </mxCell>
                <mxCell id="31" value="9" style="ellipse;whiteSpace=wrap;html=1;aspect=fixed;fontSize=24;fontStyle=1;fillColor=none;fontFamily=Times New Roman;" parent="1" vertex="1">
                    <mxGeometry x="160" y="-2080" width="40" height="40" as="geometry"/>
                </mxCell>
                <mxCell id="32" value="10" style="ellipse;whiteSpace=wrap;html=1;aspect=fixed;fontSize=24;fontStyle=1;fillColor=none;fontFamily=Times New Roman;" parent="1" vertex="1">
                    <mxGeometry x="160" y="-2040" width="40" height="40" as="geometry"/>
                </mxCell>
                <mxCell id="33" value="11" style="ellipse;whiteSpace=wrap;html=1;aspect=fixed;fontSize=24;fontStyle=1;fillColor=none;fontFamily=Times New Roman;" parent="1" vertex="1">
                    <mxGeometry x="160" y="-2000" width="40" height="40" as="geometry"/>
                </mxCell>
                <mxCell id="34" value="Taille: 15" style="shape=process;whiteSpace=wrap;html=1;backgroundOutline=1;fontFamily=Times New Roman;fontSize=20;" parent="1" vertex="1">
                    <mxGeometry x="120" y="-2280" width="120" height="60" as="geometry"/>
                </mxCell>
                <mxCell id="35" value="12" style="ellipse;whiteSpace=wrap;html=1;aspect=fixed;fontSize=24;fontStyle=1;fillColor=none;fontFamily=Times New Roman;" parent="1" vertex="1">
                    <mxGeometry x="200" y="-2140" width="40" height="40" as="geometry"/>
                </mxCell>
                <mxCell id="36" value="13" style="ellipse;whiteSpace=wrap;html=1;aspect=fixed;fontSize=24;fontStyle=1;fillColor=none;fontFamily=Times New Roman;" parent="1" vertex="1">
                    <mxGeometry x="440" y="-1760" width="40" height="40" as="geometry"/>
                </mxCell>
                <mxCell id="37" value="14" style="ellipse;whiteSpace=wrap;html=1;aspect=fixed;fontSize=24;fontStyle=1;fillColor=none;fontFamily=Times New Roman;" parent="1" vertex="1">
                    <mxGeometry x="440.00000000000006" y="-1720" width="40" height="40" as="geometry"/>
                </mxCell>
                <mxCell id="38" value="15" style="ellipse;whiteSpace=wrap;html=1;aspect=fixed;fontSize=24;fontStyle=1;fillColor=none;fontFamily=Times New Roman;" parent="1" vertex="1">
                    <mxGeometry x="440.00000000000006" y="-1680" width="40" height="40" as="geometry"/>
                </mxCell>
                <mxCell id="39" value="1" style="ellipse;whiteSpace=wrap;html=1;aspect=fixed;fontSize=24;fontStyle=1;fillColor=none;fontFamily=Times New Roman;" parent="1" vertex="1">
                    <mxGeometry x="320" y="-1760" width="40" height="40" as="geometry"/>
                </mxCell>
                <mxCell id="40" value="2" style="ellipse;whiteSpace=wrap;html=1;aspect=fixed;fontSize=24;fontStyle=1;fillColor=none;fontFamily=Times New Roman;" parent="1" vertex="1">
                    <mxGeometry x="320" y="-1720" width="40" height="40" as="geometry"/>
                </mxCell>
                <mxCell id="41" value="3" style="ellipse;whiteSpace=wrap;html=1;aspect=fixed;fontSize=24;fontStyle=1;fillColor=none;fontFamily=Times New Roman;" parent="1" vertex="1">
                    <mxGeometry x="320" y="-1680" width="40" height="40" as="geometry"/>
                </mxCell>
                <mxCell id="42" value="4" style="ellipse;whiteSpace=wrap;html=1;aspect=fixed;fontSize=24;fontStyle=1;fillColor=none;fontFamily=Times New Roman;" parent="1" vertex="1">
                    <mxGeometry x="360" y="-1800" width="40" height="40" as="geometry"/>
                </mxCell>
                <mxCell id="43" value="5" style="ellipse;whiteSpace=wrap;html=1;aspect=fixed;fontSize=24;fontStyle=1;fillColor=none;fontFamily=Times New Roman;" parent="1" vertex="1">
                    <mxGeometry x="360" y="-1760" width="40" height="40" as="geometry"/>
                </mxCell>
                <mxCell id="44" value="6" style="ellipse;whiteSpace=wrap;html=1;aspect=fixed;fontSize=24;fontStyle=1;fillColor=none;fontFamily=Times New Roman;" parent="1" vertex="1">
                    <mxGeometry x="360" y="-1720" width="40" height="40" as="geometry"/>
                </mxCell>
                <mxCell id="45" value="7" style="ellipse;whiteSpace=wrap;html=1;aspect=fixed;fontSize=24;fontStyle=1;fillColor=none;fontFamily=Times New Roman;" parent="1" vertex="1">
                    <mxGeometry x="360" y="-1680" width="40" height="40" as="geometry"/>
                </mxCell>
                <mxCell id="46" value="0" style="ellipse;whiteSpace=wrap;html=1;aspect=fixed;fontSize=24;fontStyle=1;fillColor=none;fontFamily=Times New Roman;" parent="1" vertex="1">
                    <mxGeometry x="320" y="-1800" width="40" height="40" as="geometry"/>
                </mxCell>
                <mxCell id="47" value="8" style="ellipse;whiteSpace=wrap;html=1;aspect=fixed;fontSize=24;fontStyle=1;fillColor=none;fontFamily=Times New Roman;" parent="1" vertex="1">
                    <mxGeometry x="400" y="-1800" width="40" height="40" as="geometry"/>
                </mxCell>
                <mxCell id="48" value="9" style="ellipse;whiteSpace=wrap;html=1;aspect=fixed;fontSize=24;fontStyle=1;fillColor=none;fontFamily=Times New Roman;" parent="1" vertex="1">
                    <mxGeometry x="400" y="-1760" width="40" height="40" as="geometry"/>
                </mxCell>
                <mxCell id="49" value="10" style="ellipse;whiteSpace=wrap;html=1;aspect=fixed;fontSize=24;fontStyle=1;fillColor=none;fontFamily=Times New Roman;" parent="1" vertex="1">
                    <mxGeometry x="400" y="-1720" width="40" height="40" as="geometry"/>
                </mxCell>
                <mxCell id="50" value="11" style="ellipse;whiteSpace=wrap;html=1;aspect=fixed;fontSize=24;fontStyle=1;fillColor=none;fontFamily=Times New Roman;" parent="1" vertex="1">
                    <mxGeometry x="400" y="-1680" width="40" height="40" as="geometry"/>
                </mxCell>
                <mxCell id="51" value="Taille: 16" style="shape=process;whiteSpace=wrap;html=1;backgroundOutline=1;fontFamily=Times New Roman;fontSize=20;" parent="1" vertex="1">
                    <mxGeometry x="340" y="-1880" width="120" height="60" as="geometry"/>
                </mxCell>
                <mxCell id="52" value="12" style="ellipse;whiteSpace=wrap;html=1;aspect=fixed;fontSize=24;fontStyle=1;fillColor=none;fontFamily=Times New Roman;" parent="1" vertex="1">
                    <mxGeometry x="440" y="-1800" width="40" height="40" as="geometry"/>
                </mxCell>
                <mxCell id="53" value="13" style="ellipse;whiteSpace=wrap;html=1;aspect=fixed;fontSize=24;fontStyle=1;fillColor=none;fontFamily=Times New Roman;" parent="1" vertex="1">
                    <mxGeometry x="1110" y="-1700" width="40" height="40" as="geometry"/>
                </mxCell>
                <mxCell id="54" value="14" style="ellipse;whiteSpace=wrap;html=1;aspect=fixed;fontSize=24;fontStyle=1;fillColor=none;fontFamily=Times New Roman;" parent="1" vertex="1">
                    <mxGeometry x="1110" y="-1660" width="40" height="40" as="geometry"/>
                </mxCell>
                <mxCell id="55" value="15" style="ellipse;whiteSpace=wrap;html=1;aspect=fixed;fontSize=24;fontStyle=1;fillColor=none;fontFamily=Times New Roman;" parent="1" vertex="1">
                    <mxGeometry x="1110" y="-1620" width="40" height="40" as="geometry"/>
                </mxCell>
                <mxCell id="56" value="1" style="ellipse;whiteSpace=wrap;html=1;aspect=fixed;fontSize=24;fontStyle=1;fillColor=none;fontFamily=Times New Roman;" parent="1" vertex="1">
                    <mxGeometry x="1030" y="-1740" width="40" height="40" as="geometry"/>
                </mxCell>
                <mxCell id="57" value="2" style="ellipse;whiteSpace=wrap;html=1;aspect=fixed;fontSize=24;fontStyle=1;fillColor=none;fontFamily=Times New Roman;" parent="1" vertex="1">
                    <mxGeometry x="1030" y="-1700" width="40" height="40" as="geometry"/>
                </mxCell>
                <mxCell id="58" value="3" style="ellipse;whiteSpace=wrap;html=1;aspect=fixed;fontSize=24;fontStyle=1;fillColor=none;fontFamily=Times New Roman;" parent="1" vertex="1">
                    <mxGeometry x="1030" y="-1660" width="40" height="40" as="geometry"/>
                </mxCell>
                <mxCell id="59" value="4" style="ellipse;whiteSpace=wrap;html=1;aspect=fixed;fontSize=24;fontStyle=1;fillColor=none;fontFamily=Times New Roman;" parent="1" vertex="1">
                    <mxGeometry x="1030" y="-1620" width="40" height="40" as="geometry"/>
                </mxCell>
                <mxCell id="60" value="5" style="ellipse;whiteSpace=wrap;html=1;aspect=fixed;fontSize=24;fontStyle=1;fillColor=none;fontFamily=Times New Roman;" parent="1" vertex="1">
                    <mxGeometry x="1030" y="-1580" width="40" height="40" as="geometry"/>
                </mxCell>
                <mxCell id="61" value="6" style="ellipse;whiteSpace=wrap;html=1;aspect=fixed;fontSize=24;fontStyle=1;fillColor=none;fontFamily=Times New Roman;" parent="1" vertex="1">
                    <mxGeometry x="1070" y="-1780" width="40" height="40" as="geometry"/>
                </mxCell>
                <mxCell id="62" value="7" style="ellipse;whiteSpace=wrap;html=1;aspect=fixed;fontSize=24;fontStyle=1;fillColor=none;fontFamily=Times New Roman;" parent="1" vertex="1">
                    <mxGeometry x="1070" y="-1740" width="40" height="40" as="geometry"/>
                </mxCell>
                <mxCell id="63" value="0" style="ellipse;whiteSpace=wrap;html=1;aspect=fixed;fontSize=24;fontStyle=1;fillColor=none;fontFamily=Times New Roman;" parent="1" vertex="1">
                    <mxGeometry x="1030" y="-1780" width="40" height="40" as="geometry"/>
                </mxCell>
                <mxCell id="64" value="8" style="ellipse;whiteSpace=wrap;html=1;aspect=fixed;fontSize=24;fontStyle=1;fillColor=none;fontFamily=Times New Roman;" parent="1" vertex="1">
                    <mxGeometry x="1070" y="-1700" width="40" height="40" as="geometry"/>
                </mxCell>
                <mxCell id="65" value="9" style="ellipse;whiteSpace=wrap;html=1;aspect=fixed;fontSize=24;fontStyle=1;fillColor=none;fontFamily=Times New Roman;" parent="1" vertex="1">
                    <mxGeometry x="1070" y="-1660" width="40" height="40" as="geometry"/>
                </mxCell>
                <mxCell id="66" value="10" style="ellipse;whiteSpace=wrap;html=1;aspect=fixed;fontSize=24;fontStyle=1;fillColor=none;fontFamily=Times New Roman;" parent="1" vertex="1">
                    <mxGeometry x="1070" y="-1620" width="40" height="40" as="geometry"/>
                </mxCell>
                <mxCell id="67" value="11" style="ellipse;whiteSpace=wrap;html=1;aspect=fixed;fontSize=24;fontStyle=1;fillColor=none;fontFamily=Times New Roman;" parent="1" vertex="1">
                    <mxGeometry x="1070" y="-1580" width="40" height="40" as="geometry"/>
                </mxCell>
                <mxCell id="69" value="12" style="ellipse;whiteSpace=wrap;html=1;aspect=fixed;fontSize=24;fontStyle=1;fillColor=none;fontFamily=Times New Roman;" parent="1" vertex="1">
                    <mxGeometry x="1110" y="-1740" width="40" height="40" as="geometry"/>
                </mxCell>
                <mxCell id="70" value="13" style="ellipse;whiteSpace=wrap;html=1;aspect=fixed;fontSize=24;fontStyle=1;fillColor=none;fontFamily=Times New Roman;" parent="1" vertex="1">
                    <mxGeometry x="1360" y="-1560" width="40" height="40" as="geometry"/>
                </mxCell>
                <mxCell id="71" value="14" style="ellipse;whiteSpace=wrap;html=1;aspect=fixed;fontSize=24;fontStyle=1;fillColor=none;fontFamily=Times New Roman;" parent="1" vertex="1">
                    <mxGeometry x="1400" y="-1700" width="40" height="40" as="geometry"/>
                </mxCell>
                <mxCell id="72" value="15" style="ellipse;whiteSpace=wrap;html=1;aspect=fixed;fontSize=24;fontStyle=1;fillColor=none;fontFamily=Times New Roman;" parent="1" vertex="1">
                    <mxGeometry x="1400" y="-1660" width="40" height="40" as="geometry"/>
                </mxCell>
                <mxCell id="73" value="1" style="ellipse;whiteSpace=wrap;html=1;aspect=fixed;fontSize=24;fontStyle=1;fillColor=none;fontFamily=Times New Roman;" parent="1" vertex="1">
                    <mxGeometry x="1320" y="-1760" width="40" height="40" as="geometry"/>
                </mxCell>
                <mxCell id="74" value="2" style="ellipse;whiteSpace=wrap;html=1;aspect=fixed;fontSize=24;fontStyle=1;fillColor=none;fontFamily=Times New Roman;" parent="1" vertex="1">
                    <mxGeometry x="1320" y="-1720" width="40" height="40" as="geometry"/>
                </mxCell>
                <mxCell id="75" value="3" style="ellipse;whiteSpace=wrap;html=1;aspect=fixed;fontSize=24;fontStyle=1;fillColor=none;fontFamily=Times New Roman;" parent="1" vertex="1">
                    <mxGeometry x="1320" y="-1680" width="40" height="40" as="geometry"/>
                </mxCell>
                <mxCell id="76" value="4" style="ellipse;whiteSpace=wrap;html=1;aspect=fixed;fontSize=24;fontStyle=1;fillColor=none;fontFamily=Times New Roman;" parent="1" vertex="1">
                    <mxGeometry x="1320" y="-1640" width="40" height="40" as="geometry"/>
                </mxCell>
                <mxCell id="77" value="5" style="ellipse;whiteSpace=wrap;html=1;aspect=fixed;fontSize=24;fontStyle=1;fillColor=none;fontFamily=Times New Roman;" parent="1" vertex="1">
                    <mxGeometry x="1320" y="-1600" width="40" height="40" as="geometry"/>
                </mxCell>
                <mxCell id="78" value="6" style="ellipse;whiteSpace=wrap;html=1;aspect=fixed;fontSize=24;fontStyle=1;fillColor=none;fontFamily=Times New Roman;" parent="1" vertex="1">
                    <mxGeometry x="1320" y="-1560" width="40" height="40" as="geometry"/>
                </mxCell>
                <mxCell id="79" value="7" style="ellipse;whiteSpace=wrap;html=1;aspect=fixed;fontSize=24;fontStyle=1;fillColor=none;fontFamily=Times New Roman;" parent="1" vertex="1">
                    <mxGeometry x="1360" y="-1800" width="40" height="40" as="geometry"/>
                </mxCell>
                <mxCell id="80" value="0" style="ellipse;whiteSpace=wrap;html=1;aspect=fixed;fontSize=24;fontStyle=1;fillColor=none;fontFamily=Times New Roman;" parent="1" vertex="1">
                    <mxGeometry x="1320" y="-1800" width="40" height="40" as="geometry"/>
                </mxCell>
                <mxCell id="81" value="8" style="ellipse;whiteSpace=wrap;html=1;aspect=fixed;fontSize=24;fontStyle=1;fillColor=none;fontFamily=Times New Roman;" parent="1" vertex="1">
                    <mxGeometry x="1360" y="-1760" width="40" height="40" as="geometry"/>
                </mxCell>
                <mxCell id="82" value="9" style="ellipse;whiteSpace=wrap;html=1;aspect=fixed;fontSize=24;fontStyle=1;fillColor=none;fontFamily=Times New Roman;" parent="1" vertex="1">
                    <mxGeometry x="1360" y="-1720" width="40" height="40" as="geometry"/>
                </mxCell>
                <mxCell id="83" value="10" style="ellipse;whiteSpace=wrap;html=1;aspect=fixed;fontSize=24;fontStyle=1;fillColor=none;fontFamily=Times New Roman;" parent="1" vertex="1">
                    <mxGeometry x="1360" y="-1680" width="40" height="40" as="geometry"/>
                </mxCell>
                <mxCell id="84" value="11" style="ellipse;whiteSpace=wrap;html=1;aspect=fixed;fontSize=24;fontStyle=1;fillColor=none;fontFamily=Times New Roman;" parent="1" vertex="1">
                    <mxGeometry x="1360" y="-1640" width="40" height="40" as="geometry"/>
                </mxCell>
                <mxCell id="86" value="12" style="ellipse;whiteSpace=wrap;html=1;aspect=fixed;fontSize=24;fontStyle=1;fillColor=none;fontFamily=Times New Roman;" parent="1" vertex="1">
                    <mxGeometry x="1360" y="-1600" width="40" height="40" as="geometry"/>
                </mxCell>
                <mxCell id="87" value="13" style="ellipse;whiteSpace=wrap;html=1;aspect=fixed;fontSize=24;fontStyle=1;fillColor=none;fontFamily=Times New Roman;" parent="1" vertex="1">
                    <mxGeometry x="530" y="-2000" width="40" height="40" as="geometry"/>
                </mxCell>
                <mxCell id="88" value="14" style="ellipse;whiteSpace=wrap;html=1;aspect=fixed;fontSize=24;fontStyle=1;fillColor=none;fontFamily=Times New Roman;" parent="1" vertex="1">
                    <mxGeometry x="530" y="-1960" width="40" height="40" as="geometry"/>
                </mxCell>
                <mxCell id="89" value="15" style="ellipse;whiteSpace=wrap;html=1;aspect=fixed;fontSize=24;fontStyle=1;fillColor=none;fontFamily=Times New Roman;" parent="1" vertex="1">
                    <mxGeometry x="570" y="-2000" width="40" height="40" as="geometry"/>
                </mxCell>
                <mxCell id="90" value="1" style="ellipse;whiteSpace=wrap;html=1;aspect=fixed;fontSize=24;fontStyle=1;fillColor=none;fontFamily=Times New Roman;" parent="1" vertex="1">
                    <mxGeometry x="-420" y="-1760" width="40" height="40" as="geometry"/>
                </mxCell>
                <mxCell id="91" value="2" style="ellipse;whiteSpace=wrap;html=1;aspect=fixed;fontSize=24;fontStyle=1;fillColor=none;fontFamily=Times New Roman;" parent="1" vertex="1">
                    <mxGeometry x="-420" y="-1720" width="40" height="40" as="geometry"/>
                </mxCell>
                <mxCell id="92" value="3" style="ellipse;whiteSpace=wrap;html=1;aspect=fixed;fontSize=24;fontStyle=1;fillColor=none;fontFamily=Times New Roman;" parent="1" vertex="1">
                    <mxGeometry x="-420" y="-1680" width="40" height="40" as="geometry"/>
                </mxCell>
                <mxCell id="93" value="4" style="ellipse;whiteSpace=wrap;html=1;aspect=fixed;fontSize=24;fontStyle=1;fillColor=none;fontFamily=Times New Roman;" parent="1" vertex="1">
                    <mxGeometry x="-380" y="-1800" width="40" height="40" as="geometry"/>
                </mxCell>
                <mxCell id="94" value="5" style="ellipse;whiteSpace=wrap;html=1;aspect=fixed;fontSize=24;fontStyle=1;fillColor=none;fontFamily=Times New Roman;" parent="1" vertex="1">
                    <mxGeometry x="-380" y="-1760" width="40" height="40" as="geometry"/>
                </mxCell>
                <mxCell id="95" value="6" style="ellipse;whiteSpace=wrap;html=1;aspect=fixed;fontSize=24;fontStyle=1;fillColor=none;fontFamily=Times New Roman;" parent="1" vertex="1">
                    <mxGeometry x="-380" y="-1720" width="40" height="40" as="geometry"/>
                </mxCell>
                <mxCell id="96" value="7" style="ellipse;whiteSpace=wrap;html=1;aspect=fixed;fontSize=24;fontStyle=1;fillColor=none;fontFamily=Times New Roman;" parent="1" vertex="1">
                    <mxGeometry x="-380" y="-1680" width="40" height="40" as="geometry"/>
                </mxCell>
                <mxCell id="97" value="0" style="ellipse;whiteSpace=wrap;html=1;aspect=fixed;fontSize=24;fontStyle=1;fillColor=none;fontFamily=Times New Roman;" parent="1" vertex="1">
                    <mxGeometry x="-420" y="-1800" width="40" height="40" as="geometry"/>
                </mxCell>
                <mxCell id="98" value="8" style="ellipse;whiteSpace=wrap;html=1;aspect=fixed;fontSize=24;fontStyle=1;fillColor=none;fontFamily=Times New Roman;" parent="1" vertex="1">
                    <mxGeometry x="240" y="-1480" width="40" height="40" as="geometry"/>
                </mxCell>
                <mxCell id="99" value="9" style="ellipse;whiteSpace=wrap;html=1;aspect=fixed;fontSize=24;fontStyle=1;fillColor=none;fontFamily=Times New Roman;" parent="1" vertex="1">
                    <mxGeometry x="490" y="-2040" width="40" height="40" as="geometry"/>
                </mxCell>
                <mxCell id="100" value="10" style="ellipse;whiteSpace=wrap;html=1;aspect=fixed;fontSize=24;fontStyle=1;fillColor=none;fontFamily=Times New Roman;" parent="1" vertex="1">
                    <mxGeometry x="490" y="-2000" width="40" height="40" as="geometry"/>
                </mxCell>
                <mxCell id="101" value="11" style="ellipse;whiteSpace=wrap;html=1;aspect=fixed;fontSize=24;fontStyle=1;fillColor=none;fontFamily=Times New Roman;" parent="1" vertex="1">
                    <mxGeometry x="490" y="-1960" width="40" height="40" as="geometry"/>
                </mxCell>
                <mxCell id="102" value="Taille: 8" style="shape=process;whiteSpace=wrap;html=1;backgroundOutline=1;fontFamily=Times New Roman;fontSize=20;" parent="1" vertex="1">
                    <mxGeometry x="-440" y="-1880" width="120" height="60" as="geometry"/>
                </mxCell>
                <mxCell id="103" value="12" style="ellipse;whiteSpace=wrap;html=1;aspect=fixed;fontSize=24;fontStyle=1;fillColor=none;fontFamily=Times New Roman;" parent="1" vertex="1">
                    <mxGeometry x="530" y="-2040" width="40" height="40" as="geometry"/>
                </mxCell>
                <mxCell id="104" value="13" style="ellipse;whiteSpace=wrap;html=1;aspect=fixed;fontSize=24;fontStyle=1;fillColor=none;fontFamily=Times New Roman;" parent="1" vertex="1">
                    <mxGeometry x="1840" y="-1770" width="40" height="40" as="geometry"/>
                </mxCell>
                <mxCell id="105" value="14" style="ellipse;whiteSpace=wrap;html=1;aspect=fixed;fontSize=24;fontStyle=1;fillColor=none;fontFamily=Times New Roman;" parent="1" vertex="1">
                    <mxGeometry x="1840" y="-1730" width="40" height="40" as="geometry"/>
                </mxCell>
                <mxCell id="106" value="15" style="ellipse;whiteSpace=wrap;html=1;aspect=fixed;fontSize=24;fontStyle=1;fillColor=none;fontFamily=Times New Roman;" parent="1" vertex="1">
                    <mxGeometry x="1840" y="-1690" width="40" height="40" as="geometry"/>
                </mxCell>
                <mxCell id="107" value="1" style="ellipse;whiteSpace=wrap;html=1;aspect=fixed;fontSize=24;fontStyle=1;fillColor=none;fontFamily=Times New Roman;" parent="1" vertex="1">
                    <mxGeometry x="1800" y="-1930" width="40" height="40" as="geometry"/>
                </mxCell>
                <mxCell id="108" value="2" style="ellipse;whiteSpace=wrap;html=1;aspect=fixed;fontSize=24;fontStyle=1;fillColor=none;fontFamily=Times New Roman;" parent="1" vertex="1">
                    <mxGeometry x="1800" y="-1890" width="40" height="40" as="geometry"/>
                </mxCell>
                <mxCell id="109" value="3" style="ellipse;whiteSpace=wrap;html=1;aspect=fixed;fontSize=24;fontStyle=1;fillColor=none;fontFamily=Times New Roman;" parent="1" vertex="1">
                    <mxGeometry x="1800" y="-1850" width="40" height="40" as="geometry"/>
                </mxCell>
                <mxCell id="110" value="4" style="ellipse;whiteSpace=wrap;html=1;aspect=fixed;fontSize=24;fontStyle=1;fillColor=none;fontFamily=Times New Roman;" parent="1" vertex="1">
                    <mxGeometry x="1800" y="-1810" width="40" height="40" as="geometry"/>
                </mxCell>
                <mxCell id="111" value="5" style="ellipse;whiteSpace=wrap;html=1;aspect=fixed;fontSize=24;fontStyle=1;fillColor=none;fontFamily=Times New Roman;" parent="1" vertex="1">
                    <mxGeometry x="1800" y="-1770" width="40" height="40" as="geometry"/>
                </mxCell>
                <mxCell id="112" value="6" style="ellipse;whiteSpace=wrap;html=1;aspect=fixed;fontSize=24;fontStyle=1;fillColor=none;fontFamily=Times New Roman;" parent="1" vertex="1">
                    <mxGeometry x="1800" y="-1730" width="40" height="40" as="geometry"/>
                </mxCell>
                <mxCell id="113" value="7" style="ellipse;whiteSpace=wrap;html=1;aspect=fixed;fontSize=24;fontStyle=1;fillColor=none;fontFamily=Times New Roman;" parent="1" vertex="1">
                    <mxGeometry x="1800" y="-1690" width="40" height="40" as="geometry"/>
                </mxCell>
                <mxCell id="114" value="0" style="ellipse;whiteSpace=wrap;html=1;aspect=fixed;fontSize=24;fontStyle=1;fillColor=none;fontFamily=Times New Roman;" parent="1" vertex="1">
                    <mxGeometry x="1800" y="-1970" width="40" height="40" as="geometry"/>
                </mxCell>
                <mxCell id="115" value="8" style="ellipse;whiteSpace=wrap;html=1;aspect=fixed;fontSize=24;fontStyle=1;fillColor=none;fontFamily=Times New Roman;" parent="1" vertex="1">
                    <mxGeometry x="1840" y="-1970" width="40" height="40" as="geometry"/>
                </mxCell>
                <mxCell id="116" value="9" style="ellipse;whiteSpace=wrap;html=1;aspect=fixed;fontSize=24;fontStyle=1;fillColor=none;fontFamily=Times New Roman;" parent="1" vertex="1">
                    <mxGeometry x="1840" y="-1930" width="40" height="40" as="geometry"/>
                </mxCell>
                <mxCell id="117" value="10" style="ellipse;whiteSpace=wrap;html=1;aspect=fixed;fontSize=24;fontStyle=1;fillColor=none;fontFamily=Times New Roman;" parent="1" vertex="1">
                    <mxGeometry x="1840" y="-1890" width="40" height="40" as="geometry"/>
                </mxCell>
                <mxCell id="118" value="11" style="ellipse;whiteSpace=wrap;html=1;aspect=fixed;fontSize=24;fontStyle=1;fillColor=none;fontFamily=Times New Roman;" parent="1" vertex="1">
                    <mxGeometry x="1840" y="-1850" width="40" height="40" as="geometry"/>
                </mxCell>
                <mxCell id="120" value="12" style="ellipse;whiteSpace=wrap;html=1;aspect=fixed;fontSize=24;fontStyle=1;fillColor=none;fontFamily=Times New Roman;" parent="1" vertex="1">
                    <mxGeometry x="1840" y="-1810" width="40" height="40" as="geometry"/>
                </mxCell>
                <mxCell id="121" value="1" style="ellipse;whiteSpace=wrap;html=1;aspect=fixed;fontSize=24;fontStyle=1;fillColor=none;fontFamily=Times New Roman;" parent="1" vertex="1">
                    <mxGeometry x="-260" y="-1760" width="40" height="40" as="geometry"/>
                </mxCell>
                <mxCell id="122" value="2" style="ellipse;whiteSpace=wrap;html=1;aspect=fixed;fontSize=24;fontStyle=1;fillColor=none;fontFamily=Times New Roman;" parent="1" vertex="1">
                    <mxGeometry x="-260" y="-1720" width="40" height="40" as="geometry"/>
                </mxCell>
                <mxCell id="123" value="3" style="ellipse;whiteSpace=wrap;html=1;aspect=fixed;fontSize=24;fontStyle=1;fillColor=none;fontFamily=Times New Roman;" parent="1" vertex="1">
                    <mxGeometry x="-260" y="-1680" width="40" height="40" as="geometry"/>
                </mxCell>
                <mxCell id="124" value="4" style="ellipse;whiteSpace=wrap;html=1;aspect=fixed;fontSize=24;fontStyle=1;fillColor=none;fontFamily=Times New Roman;" parent="1" vertex="1">
                    <mxGeometry x="-260" y="-1640" width="40" height="40" as="geometry"/>
                </mxCell>
                <mxCell id="125" value="5" style="ellipse;whiteSpace=wrap;html=1;aspect=fixed;fontSize=24;fontStyle=1;fillColor=none;fontFamily=Times New Roman;" parent="1" vertex="1">
                    <mxGeometry x="-220" y="-1760" width="40" height="40" as="geometry"/>
                </mxCell>
                <mxCell id="126" value="6" style="ellipse;whiteSpace=wrap;html=1;aspect=fixed;fontSize=24;fontStyle=1;fillColor=none;fontFamily=Times New Roman;" parent="1" vertex="1">
                    <mxGeometry x="-220" y="-1720" width="40" height="40" as="geometry"/>
                </mxCell>
                <mxCell id="127" value="7" style="ellipse;whiteSpace=wrap;html=1;aspect=fixed;fontSize=24;fontStyle=1;fillColor=none;fontFamily=Times New Roman;" parent="1" vertex="1">
                    <mxGeometry x="-220" y="-1680" width="40" height="40" as="geometry"/>
                </mxCell>
                <mxCell id="128" value="0" style="ellipse;whiteSpace=wrap;html=1;aspect=fixed;fontSize=24;fontStyle=1;fillColor=none;fontFamily=Times New Roman;" parent="1" vertex="1">
                    <mxGeometry x="-260" y="-1800" width="40" height="40" as="geometry"/>
                </mxCell>
                <mxCell id="129" value="Taille: 8" style="shape=process;whiteSpace=wrap;html=1;backgroundOutline=1;fontFamily=Times New Roman;fontSize=20;" parent="1" vertex="1">
                    <mxGeometry x="-280" y="-1880" width="120" height="60" as="geometry"/>
                </mxCell>
                <mxCell id="130" value="1" style="ellipse;whiteSpace=wrap;html=1;aspect=fixed;fontSize=24;fontStyle=1;fillColor=none;fontFamily=Times New Roman;" parent="1" vertex="1">
                    <mxGeometry x="-100" y="-1760" width="40" height="40" as="geometry"/>
                </mxCell>
                <mxCell id="131" value="2" style="ellipse;whiteSpace=wrap;html=1;aspect=fixed;fontSize=24;fontStyle=1;fillColor=none;fontFamily=Times New Roman;" parent="1" vertex="1">
                    <mxGeometry x="-100" y="-1720" width="40" height="40" as="geometry"/>
                </mxCell>
                <mxCell id="132" value="3" style="ellipse;whiteSpace=wrap;html=1;aspect=fixed;fontSize=24;fontStyle=1;fillColor=none;fontFamily=Times New Roman;" parent="1" vertex="1">
                    <mxGeometry x="-100" y="-1680" width="40" height="40" as="geometry"/>
                </mxCell>
                <mxCell id="133" value="4" style="ellipse;whiteSpace=wrap;html=1;aspect=fixed;fontSize=24;fontStyle=1;fillColor=none;fontFamily=Times New Roman;" parent="1" vertex="1">
                    <mxGeometry x="-100" y="-1640" width="40" height="40" as="geometry"/>
                </mxCell>
                <mxCell id="134" value="5" style="ellipse;whiteSpace=wrap;html=1;aspect=fixed;fontSize=24;fontStyle=1;fillColor=none;fontFamily=Times New Roman;" parent="1" vertex="1">
                    <mxGeometry x="-100" y="-1600" width="40" height="40" as="geometry"/>
                </mxCell>
                <mxCell id="135" value="6" style="ellipse;whiteSpace=wrap;html=1;aspect=fixed;fontSize=24;fontStyle=1;fillColor=none;fontFamily=Times New Roman;" parent="1" vertex="1">
                    <mxGeometry x="-60" y="-1720" width="40" height="40" as="geometry"/>
                </mxCell>
                <mxCell id="136" value="7" style="ellipse;whiteSpace=wrap;html=1;aspect=fixed;fontSize=24;fontStyle=1;fillColor=none;fontFamily=Times New Roman;" parent="1" vertex="1">
                    <mxGeometry x="-60" y="-1680" width="40" height="40" as="geometry"/>
                </mxCell>
                <mxCell id="137" value="0" style="ellipse;whiteSpace=wrap;html=1;aspect=fixed;fontSize=24;fontStyle=1;fillColor=none;fontFamily=Times New Roman;" parent="1" vertex="1">
                    <mxGeometry x="-100" y="-1800" width="40" height="40" as="geometry"/>
                </mxCell>
                <mxCell id="138" value="Taille: 8" style="shape=process;whiteSpace=wrap;html=1;backgroundOutline=1;fontFamily=Times New Roman;fontSize=20;" parent="1" vertex="1">
                    <mxGeometry x="-120" y="-1880" width="120" height="60" as="geometry"/>
                </mxCell>
                <mxCell id="139" value="" style="shape=curlyBracket;whiteSpace=wrap;html=1;rounded=1;" parent="1" vertex="1">
                    <mxGeometry x="680" y="-1760" width="20" height="200" as="geometry"/>
                </mxCell>
                <mxCell id="140" value="5" style="text;html=1;strokeColor=default;fillColor=none;align=center;verticalAlign=middle;whiteSpace=wrap;rounded=0;fontFamily=Times New Roman;fontSize=20;" parent="1" vertex="1">
                    <mxGeometry x="640" y="-1680" width="40" height="40" as="geometry"/>
                </mxCell>
                <mxCell id="141" value="" style="shape=curlyBracket;whiteSpace=wrap;html=1;rounded=1;" parent="1" vertex="1">
                    <mxGeometry x="1010" y="-1780" width="20" height="240" as="geometry"/>
                </mxCell>
                <mxCell id="142" value="6" style="text;html=1;strokeColor=default;fillColor=none;align=center;verticalAlign=middle;whiteSpace=wrap;rounded=0;fontFamily=Times New Roman;fontSize=20;" parent="1" vertex="1">
                    <mxGeometry x="970" y="-1680" width="40" height="40" as="geometry"/>
                </mxCell>
                <mxCell id="143" value="" style="shape=curlyBracket;whiteSpace=wrap;html=1;rounded=1;flipH=1;fontFamily=Times New Roman;fontSize=20;" parent="1" vertex="1">
                    <mxGeometry x="860" y="-1680" width="20" height="40" as="geometry"/>
                </mxCell>
                <mxCell id="144" value="" style="shape=curlyBracket;whiteSpace=wrap;html=1;rounded=1;flipH=1;fontFamily=Times New Roman;fontSize=20;" parent="1" vertex="1">
                    <mxGeometry x="1150" y="-1740" width="20" height="160" as="geometry"/>
                </mxCell>
                <mxCell id="145" value="1" style="text;html=1;strokeColor=default;fillColor=none;align=center;verticalAlign=middle;whiteSpace=wrap;rounded=0;fontFamily=Times New Roman;fontSize=20;" parent="1" vertex="1">
                    <mxGeometry x="880" y="-1680" width="40" height="40" as="geometry"/>
                </mxCell>
                <mxCell id="146" value="4" style="text;html=1;strokeColor=default;fillColor=none;align=center;verticalAlign=middle;whiteSpace=wrap;rounded=0;fontFamily=Times New Roman;fontSize=20;" parent="1" vertex="1">
                    <mxGeometry x="1170" y="-1680" width="40" height="40" as="geometry"/>
                </mxCell>
                <mxCell id="147" value="" style="shape=curlyBracket;whiteSpace=wrap;html=1;rounded=1;flipH=1;fontFamily=Times New Roman;fontSize=20;" parent="1" vertex="1">
                    <mxGeometry x="1440" y="-1700" width="20" height="80" as="geometry"/>
                </mxCell>
                <mxCell id="148" value="2" style="text;html=1;strokeColor=default;fillColor=none;align=center;verticalAlign=middle;whiteSpace=wrap;rounded=0;fontFamily=Times New Roman;fontSize=20;" parent="1" vertex="1">
                    <mxGeometry x="1460" y="-1680" width="40" height="40" as="geometry"/>
                </mxCell>
                <mxCell id="149" value="" style="shape=curlyBracket;whiteSpace=wrap;html=1;rounded=1;" parent="1" vertex="1">
                    <mxGeometry x="1300" y="-1800" width="20" height="280" as="geometry"/>
                </mxCell>
                <mxCell id="150" value="7" style="text;html=1;strokeColor=default;fillColor=none;align=center;verticalAlign=middle;whiteSpace=wrap;rounded=0;fontFamily=Times New Roman;fontSize=20;labelBorderColor=none;" parent="1" vertex="1">
                    <mxGeometry x="1260" y="-1680" width="40" height="40" as="geometry"/>
                </mxCell>
                <mxCell id="156" value="13" style="ellipse;whiteSpace=wrap;html=1;aspect=fixed;fontSize=24;fontStyle=1;fillColor=none;fontFamily=Times New Roman;" parent="1" vertex="1">
                    <mxGeometry x="720" y="-1140" width="40" height="40" as="geometry"/>
                </mxCell>
                <mxCell id="157" value="14" style="ellipse;whiteSpace=wrap;html=1;aspect=fixed;fontSize=24;fontStyle=1;fillColor=none;fontFamily=Times New Roman;" parent="1" vertex="1">
                    <mxGeometry x="720" y="-1100" width="40" height="40" as="geometry"/>
                </mxCell>
                <mxCell id="159" value="1" style="ellipse;whiteSpace=wrap;html=1;aspect=fixed;fontSize=24;fontStyle=1;fillColor=none;fontFamily=Times New Roman;" parent="1" vertex="1">
                    <mxGeometry x="640" y="-1160" width="40" height="40" as="geometry"/>
                </mxCell>
                <mxCell id="160" value="2" style="ellipse;whiteSpace=wrap;html=1;aspect=fixed;fontSize=24;fontStyle=1;fillColor=none;fontFamily=Times New Roman;" parent="1" vertex="1">
                    <mxGeometry x="640" y="-1120" width="40" height="40" as="geometry"/>
                </mxCell>
                <mxCell id="161" value="3" style="ellipse;whiteSpace=wrap;html=1;aspect=fixed;fontSize=24;fontStyle=1;fillColor=none;fontFamily=Times New Roman;" parent="1" vertex="1">
                    <mxGeometry x="640" y="-1080" width="40" height="40" as="geometry"/>
                </mxCell>
                <mxCell id="162" value="4" style="ellipse;whiteSpace=wrap;html=1;aspect=fixed;fontSize=24;fontStyle=1;fillColor=none;fontFamily=Times New Roman;" parent="1" vertex="1">
                    <mxGeometry x="640" y="-1040" width="40" height="40" as="geometry"/>
                </mxCell>
                <mxCell id="163" value="5" style="ellipse;whiteSpace=wrap;html=1;aspect=fixed;fontSize=24;fontStyle=1;fillColor=none;fontFamily=Times New Roman;" parent="1" vertex="1">
                    <mxGeometry x="640" y="-1000" width="40" height="40" as="geometry"/>
                </mxCell>
                <mxCell id="164" value="6" style="ellipse;whiteSpace=wrap;html=1;aspect=fixed;fontSize=24;fontStyle=1;fillColor=none;fontFamily=Times New Roman;" parent="1" vertex="1">
                    <mxGeometry x="680" y="-1200" width="40" height="40" as="geometry"/>
                </mxCell>
                <mxCell id="165" value="7" style="ellipse;whiteSpace=wrap;html=1;aspect=fixed;fontSize=24;fontStyle=1;fillColor=none;fontFamily=Times New Roman;" parent="1" vertex="1">
                    <mxGeometry x="680" y="-1160" width="40" height="40" as="geometry"/>
                </mxCell>
                <mxCell id="166" value="0" style="ellipse;whiteSpace=wrap;html=1;aspect=fixed;fontSize=24;fontStyle=1;fillColor=none;fontFamily=Times New Roman;" parent="1" vertex="1">
                    <mxGeometry x="640" y="-1200" width="40" height="40" as="geometry"/>
                </mxCell>
                <mxCell id="167" value="8" style="ellipse;whiteSpace=wrap;html=1;aspect=fixed;fontSize=24;fontStyle=1;fillColor=none;fontFamily=Times New Roman;" parent="1" vertex="1">
                    <mxGeometry x="680" y="-1120" width="40" height="40" as="geometry"/>
                </mxCell>
                <mxCell id="168" value="9" style="ellipse;whiteSpace=wrap;html=1;aspect=fixed;fontSize=24;fontStyle=1;fillColor=none;fontFamily=Times New Roman;" parent="1" vertex="1">
                    <mxGeometry x="680" y="-1080" width="40" height="40" as="geometry"/>
                </mxCell>
                <mxCell id="169" value="10" style="ellipse;whiteSpace=wrap;html=1;aspect=fixed;fontSize=24;fontStyle=1;fillColor=none;fontFamily=Times New Roman;" parent="1" vertex="1">
                    <mxGeometry x="680" y="-1040" width="40" height="40" as="geometry"/>
                </mxCell>
                <mxCell id="170" value="11" style="ellipse;whiteSpace=wrap;html=1;aspect=fixed;fontSize=24;fontStyle=1;fillColor=none;fontFamily=Times New Roman;" parent="1" vertex="1">
                    <mxGeometry x="680" y="-1000" width="40" height="40" as="geometry"/>
                </mxCell>
                <mxCell id="171" value="Taille: 17" style="shape=process;whiteSpace=wrap;html=1;backgroundOutline=1;fontFamily=Times New Roman;fontSize=20;" parent="1" vertex="1">
                    <mxGeometry x="735" y="-1320" width="370" height="60" as="geometry"/>
                </mxCell>
                <mxCell id="172" value="12" style="ellipse;whiteSpace=wrap;html=1;aspect=fixed;fontSize=24;fontStyle=1;fillColor=none;fontFamily=Times New Roman;" parent="1" vertex="1">
                    <mxGeometry x="720" y="-1180" width="40" height="40" as="geometry"/>
                </mxCell>
                <mxCell id="173" value="13" style="ellipse;whiteSpace=wrap;html=1;aspect=fixed;fontSize=24;fontStyle=1;fillColor=none;fontFamily=Times New Roman;" parent="1" vertex="1">
                    <mxGeometry x="900" y="-980" width="40" height="40" as="geometry"/>
                </mxCell>
                <mxCell id="174" value="14" style="ellipse;whiteSpace=wrap;html=1;aspect=fixed;fontSize=24;fontStyle=1;fillColor=none;fontFamily=Times New Roman;" parent="1" vertex="1">
                    <mxGeometry x="940" y="-1140" width="40" height="40" as="geometry"/>
                </mxCell>
                <mxCell id="175" value="15" style="ellipse;whiteSpace=wrap;html=1;aspect=fixed;fontSize=24;fontStyle=1;fillColor=none;fontFamily=Times New Roman;" parent="1" vertex="1">
                    <mxGeometry x="940" y="-1100" width="40" height="40" as="geometry"/>
                </mxCell>
                <mxCell id="176" value="1" style="ellipse;whiteSpace=wrap;html=1;aspect=fixed;fontSize=24;fontStyle=1;fillColor=none;fontFamily=Times New Roman;" parent="1" vertex="1">
                    <mxGeometry x="860" y="-1180" width="40" height="40" as="geometry"/>
                </mxCell>
                <mxCell id="177" value="2" style="ellipse;whiteSpace=wrap;html=1;aspect=fixed;fontSize=24;fontStyle=1;fillColor=none;fontFamily=Times New Roman;" parent="1" vertex="1">
                    <mxGeometry x="860" y="-1140" width="40" height="40" as="geometry"/>
                </mxCell>
                <mxCell id="178" value="3" style="ellipse;whiteSpace=wrap;html=1;aspect=fixed;fontSize=24;fontStyle=1;fillColor=none;fontFamily=Times New Roman;" parent="1" vertex="1">
                    <mxGeometry x="860" y="-1100" width="40" height="40" as="geometry"/>
                </mxCell>
                <mxCell id="179" value="4" style="ellipse;whiteSpace=wrap;html=1;aspect=fixed;fontSize=24;fontStyle=1;fillColor=none;fontFamily=Times New Roman;" parent="1" vertex="1">
                    <mxGeometry x="860" y="-1060" width="40" height="40" as="geometry"/>
                </mxCell>
                <mxCell id="180" value="5" style="ellipse;whiteSpace=wrap;html=1;aspect=fixed;fontSize=24;fontStyle=1;fillColor=none;fontFamily=Times New Roman;" parent="1" vertex="1">
                    <mxGeometry x="860" y="-1020" width="40" height="40" as="geometry"/>
                </mxCell>
                <mxCell id="181" value="6" style="ellipse;whiteSpace=wrap;html=1;aspect=fixed;fontSize=24;fontStyle=1;fillColor=none;fontFamily=Times New Roman;" parent="1" vertex="1">
                    <mxGeometry x="860" y="-980" width="40" height="40" as="geometry"/>
                </mxCell>
                <mxCell id="182" value="7" style="ellipse;whiteSpace=wrap;html=1;aspect=fixed;fontSize=24;fontStyle=1;fillColor=none;fontFamily=Times New Roman;" parent="1" vertex="1">
                    <mxGeometry x="900" y="-1220" width="40" height="40" as="geometry"/>
                </mxCell>
                <mxCell id="183" value="0" style="ellipse;whiteSpace=wrap;html=1;aspect=fixed;fontSize=24;fontStyle=1;fillColor=none;fontFamily=Times New Roman;" parent="1" vertex="1">
                    <mxGeometry x="860" y="-1220" width="40" height="40" as="geometry"/>
                </mxCell>
                <mxCell id="184" value="8" style="ellipse;whiteSpace=wrap;html=1;aspect=fixed;fontSize=24;fontStyle=1;fillColor=none;fontFamily=Times New Roman;" parent="1" vertex="1">
                    <mxGeometry x="900" y="-1180" width="40" height="40" as="geometry"/>
                </mxCell>
                <mxCell id="185" value="9" style="ellipse;whiteSpace=wrap;html=1;aspect=fixed;fontSize=24;fontStyle=1;fillColor=none;fontFamily=Times New Roman;" parent="1" vertex="1">
                    <mxGeometry x="900" y="-1140" width="40" height="40" as="geometry"/>
                </mxCell>
                <mxCell id="186" value="10" style="ellipse;whiteSpace=wrap;html=1;aspect=fixed;fontSize=24;fontStyle=1;fillColor=none;fontFamily=Times New Roman;" parent="1" vertex="1">
                    <mxGeometry x="900" y="-1100" width="40" height="40" as="geometry"/>
                </mxCell>
                <mxCell id="187" value="11" style="ellipse;whiteSpace=wrap;html=1;aspect=fixed;fontSize=24;fontStyle=1;fillColor=none;fontFamily=Times New Roman;" parent="1" vertex="1">
                    <mxGeometry x="900" y="-1060" width="40" height="40" as="geometry"/>
                </mxCell>
                <mxCell id="188" value="12" style="ellipse;whiteSpace=wrap;html=1;aspect=fixed;fontSize=24;fontStyle=1;fillColor=none;fontFamily=Times New Roman;" parent="1" vertex="1">
                    <mxGeometry x="900" y="-1020" width="40" height="40" as="geometry"/>
                </mxCell>
                <mxCell id="189" value="13" style="ellipse;whiteSpace=wrap;html=1;aspect=fixed;fontSize=24;fontStyle=1;fillColor=none;fontFamily=Times New Roman;" parent="1" vertex="1">
                    <mxGeometry x="1360" y="-1040" width="40" height="40" as="geometry"/>
                </mxCell>
                <mxCell id="190" value="14" style="ellipse;whiteSpace=wrap;html=1;aspect=fixed;fontSize=24;fontStyle=1;fillColor=none;fontFamily=Times New Roman;" parent="1" vertex="1">
                    <mxGeometry x="1400" y="-1180" width="40" height="40" as="geometry"/>
                </mxCell>
                <mxCell id="191" value="15" style="ellipse;whiteSpace=wrap;html=1;aspect=fixed;fontSize=24;fontStyle=1;fillColor=none;fontFamily=Times New Roman;" parent="1" vertex="1">
                    <mxGeometry x="1400" y="-1140" width="40" height="40" as="geometry"/>
                </mxCell>
                <mxCell id="192" value="1" style="ellipse;whiteSpace=wrap;html=1;aspect=fixed;fontSize=24;fontStyle=1;fillColor=none;fontFamily=Times New Roman;" parent="1" vertex="1">
                    <mxGeometry x="1320" y="-1200" width="40" height="40" as="geometry"/>
                </mxCell>
                <mxCell id="193" value="2" style="ellipse;whiteSpace=wrap;html=1;aspect=fixed;fontSize=24;fontStyle=1;fillColor=none;fontFamily=Times New Roman;" parent="1" vertex="1">
                    <mxGeometry x="1320" y="-1160" width="40" height="40" as="geometry"/>
                </mxCell>
                <mxCell id="194" value="3" style="ellipse;whiteSpace=wrap;html=1;aspect=fixed;fontSize=24;fontStyle=1;fillColor=none;fontFamily=Times New Roman;" parent="1" vertex="1">
                    <mxGeometry x="1320" y="-1120" width="40" height="40" as="geometry"/>
                </mxCell>
                <mxCell id="195" value="4" style="ellipse;whiteSpace=wrap;html=1;aspect=fixed;fontSize=24;fontStyle=1;fillColor=none;fontFamily=Times New Roman;" parent="1" vertex="1">
                    <mxGeometry x="1320" y="-1080" width="40" height="40" as="geometry"/>
                </mxCell>
                <mxCell id="196" value="5" style="ellipse;whiteSpace=wrap;html=1;aspect=fixed;fontSize=24;fontStyle=1;fillColor=none;fontFamily=Times New Roman;" parent="1" vertex="1">
                    <mxGeometry x="1320" y="-1040" width="40" height="40" as="geometry"/>
                </mxCell>
                <mxCell id="197" value="6" style="ellipse;whiteSpace=wrap;html=1;aspect=fixed;fontSize=24;fontStyle=1;fillColor=none;fontFamily=Times New Roman;" parent="1" vertex="1">
                    <mxGeometry x="1320" y="-1000" width="40" height="40" as="geometry"/>
                </mxCell>
                <mxCell id="198" value="7" style="ellipse;whiteSpace=wrap;html=1;aspect=fixed;fontSize=24;fontStyle=1;fillColor=none;fontFamily=Times New Roman;" parent="1" vertex="1">
                    <mxGeometry x="1320" y="-960" width="40" height="40" as="geometry"/>
                </mxCell>
                <mxCell id="199" value="0" style="ellipse;whiteSpace=wrap;html=1;aspect=fixed;fontSize=24;fontStyle=1;fillColor=none;fontFamily=Times New Roman;" parent="1" vertex="1">
                    <mxGeometry x="1320" y="-1240" width="40" height="40" as="geometry"/>
                </mxCell>
                <mxCell id="200" value="8" style="ellipse;whiteSpace=wrap;html=1;aspect=fixed;fontSize=24;fontStyle=1;fillColor=none;fontFamily=Times New Roman;" parent="1" vertex="1">
                    <mxGeometry x="1360" y="-1240" width="40" height="40" as="geometry"/>
                </mxCell>
                <mxCell id="201" value="9" style="ellipse;whiteSpace=wrap;html=1;aspect=fixed;fontSize=24;fontStyle=1;fillColor=none;fontFamily=Times New Roman;" parent="1" vertex="1">
                    <mxGeometry x="1360" y="-1200" width="40" height="40" as="geometry"/>
                </mxCell>
                <mxCell id="202" value="10" style="ellipse;whiteSpace=wrap;html=1;aspect=fixed;fontSize=24;fontStyle=1;fillColor=none;fontFamily=Times New Roman;" parent="1" vertex="1">
                    <mxGeometry x="1360" y="-1160" width="40" height="40" as="geometry"/>
                </mxCell>
                <mxCell id="203" value="11" style="ellipse;whiteSpace=wrap;html=1;aspect=fixed;fontSize=24;fontStyle=1;fillColor=none;fontFamily=Times New Roman;" parent="1" vertex="1">
                    <mxGeometry x="1360" y="-1120" width="40" height="40" as="geometry"/>
                </mxCell>
                <mxCell id="204" value="12" style="ellipse;whiteSpace=wrap;html=1;aspect=fixed;fontSize=24;fontStyle=1;fillColor=none;fontFamily=Times New Roman;" parent="1" vertex="1">
                    <mxGeometry x="1360" y="-1080" width="40" height="40" as="geometry"/>
                </mxCell>
                <mxCell id="220" value="15" style="ellipse;whiteSpace=wrap;html=1;aspect=fixed;fontSize=24;fontStyle=1;fillColor=none;fontFamily=Times New Roman;" parent="1" vertex="1">
                    <mxGeometry x="720" y="-1060" width="40" height="40" as="geometry"/>
                </mxCell>
                <mxCell id="221" value="16" style="ellipse;whiteSpace=wrap;html=1;aspect=fixed;fontSize=24;fontStyle=1;fillColor=none;fontFamily=Times New Roman;" parent="1" vertex="1">
                    <mxGeometry x="720" y="-1020" width="40" height="40" as="geometry"/>
                </mxCell>
                <mxCell id="222" value="16" style="ellipse;whiteSpace=wrap;html=1;aspect=fixed;fontSize=24;fontStyle=1;fillColor=none;fontFamily=Times New Roman;" parent="1" vertex="1">
                    <mxGeometry x="940" y="-1060" width="40" height="40" as="geometry"/>
                </mxCell>
                <mxCell id="223" value="13" style="ellipse;whiteSpace=wrap;html=1;aspect=fixed;fontSize=24;fontStyle=1;fillColor=none;fontFamily=Times New Roman;" parent="1" vertex="1">
                    <mxGeometry x="1110" y="-1040" width="40" height="40" as="geometry"/>
                </mxCell>
                <mxCell id="224" value="14" style="ellipse;whiteSpace=wrap;html=1;aspect=fixed;fontSize=24;fontStyle=1;fillColor=none;fontFamily=Times New Roman;" parent="1" vertex="1">
                    <mxGeometry x="1110" y="-1000" width="40" height="40" as="geometry"/>
                </mxCell>
                <mxCell id="225" value="15" style="ellipse;whiteSpace=wrap;html=1;aspect=fixed;fontSize=24;fontStyle=1;fillColor=none;fontFamily=Times New Roman;" parent="1" vertex="1">
                    <mxGeometry x="1110" y="-960" width="40" height="40" as="geometry"/>
                </mxCell>
                <mxCell id="226" value="1" style="ellipse;whiteSpace=wrap;html=1;aspect=fixed;fontSize=24;fontStyle=1;fillColor=none;fontFamily=Times New Roman;" parent="1" vertex="1">
                    <mxGeometry x="1070" y="-1200" width="40" height="40" as="geometry"/>
                </mxCell>
                <mxCell id="227" value="2" style="ellipse;whiteSpace=wrap;html=1;aspect=fixed;fontSize=24;fontStyle=1;fillColor=none;fontFamily=Times New Roman;" parent="1" vertex="1">
                    <mxGeometry x="1070" y="-1160" width="40" height="40" as="geometry"/>
                </mxCell>
                <mxCell id="228" value="3" style="ellipse;whiteSpace=wrap;html=1;aspect=fixed;fontSize=24;fontStyle=1;fillColor=none;fontFamily=Times New Roman;" parent="1" vertex="1">
                    <mxGeometry x="1070" y="-1120" width="40" height="40" as="geometry"/>
                </mxCell>
                <mxCell id="229" value="4" style="ellipse;whiteSpace=wrap;html=1;aspect=fixed;fontSize=24;fontStyle=1;fillColor=none;fontFamily=Times New Roman;" parent="1" vertex="1">
                    <mxGeometry x="1070" y="-1080" width="40" height="40" as="geometry"/>
                </mxCell>
                <mxCell id="230" value="5" style="ellipse;whiteSpace=wrap;html=1;aspect=fixed;fontSize=24;fontStyle=1;fillColor=none;fontFamily=Times New Roman;" parent="1" vertex="1">
                    <mxGeometry x="1070" y="-1040" width="40" height="40" as="geometry"/>
                </mxCell>
                <mxCell id="231" value="6" style="ellipse;whiteSpace=wrap;html=1;aspect=fixed;fontSize=24;fontStyle=1;fillColor=none;fontFamily=Times New Roman;" parent="1" vertex="1">
                    <mxGeometry x="1070" y="-1000" width="40" height="40" as="geometry"/>
                </mxCell>
                <mxCell id="232" value="7" style="ellipse;whiteSpace=wrap;html=1;aspect=fixed;fontSize=24;fontStyle=1;fillColor=none;fontFamily=Times New Roman;" parent="1" vertex="1">
                    <mxGeometry x="1070" y="-960" width="40" height="40" as="geometry"/>
                </mxCell>
                <mxCell id="233" value="0" style="ellipse;whiteSpace=wrap;html=1;aspect=fixed;fontSize=24;fontStyle=1;fillColor=none;fontFamily=Times New Roman;" parent="1" vertex="1">
                    <mxGeometry x="1070" y="-1240" width="40" height="40" as="geometry"/>
                </mxCell>
                <mxCell id="234" value="8" style="ellipse;whiteSpace=wrap;html=1;aspect=fixed;fontSize=24;fontStyle=1;fillColor=none;fontFamily=Times New Roman;" parent="1" vertex="1">
                    <mxGeometry x="1110" y="-1240" width="40" height="40" as="geometry"/>
                </mxCell>
                <mxCell id="235" value="9" style="ellipse;whiteSpace=wrap;html=1;aspect=fixed;fontSize=24;fontStyle=1;fillColor=none;fontFamily=Times New Roman;" parent="1" vertex="1">
                    <mxGeometry x="1110" y="-1200" width="40" height="40" as="geometry"/>
                </mxCell>
                <mxCell id="236" value="10" style="ellipse;whiteSpace=wrap;html=1;aspect=fixed;fontSize=24;fontStyle=1;fillColor=none;fontFamily=Times New Roman;" parent="1" vertex="1">
                    <mxGeometry x="1110" y="-1160" width="40" height="40" as="geometry"/>
                </mxCell>
                <mxCell id="237" value="11" style="ellipse;whiteSpace=wrap;html=1;aspect=fixed;fontSize=24;fontStyle=1;fillColor=none;fontFamily=Times New Roman;" parent="1" vertex="1">
                    <mxGeometry x="1110" y="-1120" width="40" height="40" as="geometry"/>
                </mxCell>
                <mxCell id="238" value="12" style="ellipse;whiteSpace=wrap;html=1;aspect=fixed;fontSize=24;fontStyle=1;fillColor=none;fontFamily=Times New Roman;" parent="1" vertex="1">
                    <mxGeometry x="1110" y="-1080" width="40" height="40" as="geometry"/>
                </mxCell>
                <mxCell id="239" value="16" style="ellipse;whiteSpace=wrap;html=1;aspect=fixed;fontSize=24;fontStyle=1;fillColor=none;fontFamily=Times New Roman;" parent="1" vertex="1">
                    <mxGeometry x="1150" y="-1100" width="40" height="40" as="geometry"/>
                </mxCell>
                <mxCell id="240" value="13" style="ellipse;whiteSpace=wrap;html=1;aspect=fixed;fontSize=24;fontStyle=1;fillColor=none;fontFamily=Times New Roman;" parent="1" vertex="1">
                    <mxGeometry x="360" y="-480" width="40" height="40" as="geometry"/>
                </mxCell>
                <mxCell id="241" value="14" style="ellipse;whiteSpace=wrap;html=1;aspect=fixed;fontSize=24;fontStyle=1;fillColor=none;fontFamily=Times New Roman;" parent="1" vertex="1">
                    <mxGeometry x="400" y="-660" width="40" height="40" as="geometry"/>
                </mxCell>
                <mxCell id="242" value="1" style="ellipse;whiteSpace=wrap;html=1;aspect=fixed;fontSize=24;fontStyle=1;fillColor=none;fontFamily=Times New Roman;" parent="1" vertex="1">
                    <mxGeometry x="320" y="-680" width="40" height="40" as="geometry"/>
                </mxCell>
                <mxCell id="243" value="2" style="ellipse;whiteSpace=wrap;html=1;aspect=fixed;fontSize=24;fontStyle=1;fillColor=none;fontFamily=Times New Roman;" parent="1" vertex="1">
                    <mxGeometry x="320" y="-640" width="40" height="40" as="geometry"/>
                </mxCell>
                <mxCell id="244" value="3" style="ellipse;whiteSpace=wrap;html=1;aspect=fixed;fontSize=24;fontStyle=1;fillColor=none;fontFamily=Times New Roman;" parent="1" vertex="1">
                    <mxGeometry x="320" y="-600" width="40" height="40" as="geometry"/>
                </mxCell>
                <mxCell id="245" value="4" style="ellipse;whiteSpace=wrap;html=1;aspect=fixed;fontSize=24;fontStyle=1;fillColor=none;fontFamily=Times New Roman;" parent="1" vertex="1">
                    <mxGeometry x="320" y="-560" width="40" height="40" as="geometry"/>
                </mxCell>
                <mxCell id="246" value="5" style="ellipse;whiteSpace=wrap;html=1;aspect=fixed;fontSize=24;fontStyle=1;fillColor=none;fontFamily=Times New Roman;" parent="1" vertex="1">
                    <mxGeometry x="320" y="-520" width="40" height="40" as="geometry"/>
                </mxCell>
                <mxCell id="247" value="6" style="ellipse;whiteSpace=wrap;html=1;aspect=fixed;fontSize=24;fontStyle=1;fillColor=none;fontFamily=Times New Roman;" parent="1" vertex="1">
                    <mxGeometry x="320" y="-480" width="40" height="40" as="geometry"/>
                </mxCell>
                <mxCell id="248" value="7" style="ellipse;whiteSpace=wrap;html=1;aspect=fixed;fontSize=24;fontStyle=1;fillColor=none;fontFamily=Times New Roman;" parent="1" vertex="1">
                    <mxGeometry x="360" y="-720" width="40" height="40" as="geometry"/>
                </mxCell>
                <mxCell id="249" value="0" style="ellipse;whiteSpace=wrap;html=1;aspect=fixed;fontSize=24;fontStyle=1;fillColor=none;fontFamily=Times New Roman;" parent="1" vertex="1">
                    <mxGeometry x="320" y="-720" width="40" height="40" as="geometry"/>
                </mxCell>
                <mxCell id="250" value="8" style="ellipse;whiteSpace=wrap;html=1;aspect=fixed;fontSize=24;fontStyle=1;fillColor=none;fontFamily=Times New Roman;" parent="1" vertex="1">
                    <mxGeometry x="360" y="-680" width="40" height="40" as="geometry"/>
                </mxCell>
                <mxCell id="251" value="9" style="ellipse;whiteSpace=wrap;html=1;aspect=fixed;fontSize=24;fontStyle=1;fillColor=none;fontFamily=Times New Roman;" parent="1" vertex="1">
                    <mxGeometry x="360" y="-640" width="40" height="40" as="geometry"/>
                </mxCell>
                <mxCell id="252" value="10" style="ellipse;whiteSpace=wrap;html=1;aspect=fixed;fontSize=24;fontStyle=1;fillColor=none;fontFamily=Times New Roman;" parent="1" vertex="1">
                    <mxGeometry x="360" y="-600" width="40" height="40" as="geometry"/>
                </mxCell>
                <mxCell id="253" value="11" style="ellipse;whiteSpace=wrap;html=1;aspect=fixed;fontSize=24;fontStyle=1;fillColor=none;fontFamily=Times New Roman;" parent="1" vertex="1">
                    <mxGeometry x="360" y="-560" width="40" height="40" as="geometry"/>
                </mxCell>
                <mxCell id="254" value="Taille: 18" style="shape=process;whiteSpace=wrap;html=1;backgroundOutline=1;fontFamily=Times New Roman;fontSize=20;" parent="1" vertex="1">
                    <mxGeometry x="-320" y="-810" width="1040" height="60" as="geometry"/>
                </mxCell>
                <mxCell id="255" value="12" style="ellipse;whiteSpace=wrap;html=1;aspect=fixed;fontSize=24;fontStyle=1;fillColor=none;fontFamily=Times New Roman;" parent="1" vertex="1">
                    <mxGeometry x="360" y="-520" width="40" height="40" as="geometry"/>
                </mxCell>
                <mxCell id="259" value="1" style="ellipse;whiteSpace=wrap;html=1;aspect=fixed;fontSize=24;fontStyle=1;fillColor=none;fontFamily=Times New Roman;" parent="1" vertex="1">
                    <mxGeometry y="-240" width="40" height="40" as="geometry"/>
                </mxCell>
                <mxCell id="260" value="2" style="ellipse;whiteSpace=wrap;html=1;aspect=fixed;fontSize=24;fontStyle=1;fillColor=none;fontFamily=Times New Roman;" parent="1" vertex="1">
                    <mxGeometry y="-200" width="40" height="40" as="geometry"/>
                </mxCell>
                <mxCell id="261" value="3" style="ellipse;whiteSpace=wrap;html=1;aspect=fixed;fontSize=24;fontStyle=1;fillColor=none;fontFamily=Times New Roman;" parent="1" vertex="1">
                    <mxGeometry y="-160" width="40" height="40" as="geometry"/>
                </mxCell>
                <mxCell id="262" value="4" style="ellipse;whiteSpace=wrap;html=1;aspect=fixed;fontSize=24;fontStyle=1;fillColor=none;fontFamily=Times New Roman;" parent="1" vertex="1">
                    <mxGeometry y="-120" width="40" height="40" as="geometry"/>
                </mxCell>
                <mxCell id="263" value="5" style="ellipse;whiteSpace=wrap;html=1;aspect=fixed;fontSize=24;fontStyle=1;fillColor=none;fontFamily=Times New Roman;" parent="1" vertex="1">
                    <mxGeometry x="40" y="-220" width="40" height="40" as="geometry"/>
                </mxCell>
                <mxCell id="264" value="6" style="ellipse;whiteSpace=wrap;html=1;aspect=fixed;fontSize=24;fontStyle=1;fillColor=none;fontFamily=Times New Roman;" parent="1" vertex="1">
                    <mxGeometry x="40" y="-180" width="40" height="40" as="geometry"/>
                </mxCell>
                <mxCell id="265" value="7" style="ellipse;whiteSpace=wrap;html=1;aspect=fixed;fontSize=24;fontStyle=1;fillColor=none;fontFamily=Times New Roman;" parent="1" vertex="1">
                    <mxGeometry x="200" y="-160" width="40" height="40" as="geometry"/>
                </mxCell>
                <mxCell id="266" value="0" style="ellipse;whiteSpace=wrap;html=1;aspect=fixed;fontSize=24;fontStyle=1;fillColor=none;fontFamily=Times New Roman;" parent="1" vertex="1">
                    <mxGeometry y="-280" width="40" height="40" as="geometry"/>
                </mxCell>
                <mxCell id="267" value="8" style="ellipse;whiteSpace=wrap;html=1;aspect=fixed;fontSize=24;fontStyle=1;fillColor=none;fontFamily=Times New Roman;" parent="1" vertex="1">
                    <mxGeometry x="180" y="210" width="40" height="40" as="geometry"/>
                </mxCell>
                <mxCell id="268" value="9" style="ellipse;whiteSpace=wrap;html=1;aspect=fixed;fontSize=24;fontStyle=1;fillColor=none;fontFamily=Times New Roman;" parent="1" vertex="1">
                    <mxGeometry x="340" y="230" width="40" height="40" as="geometry"/>
                </mxCell>
                <mxCell id="272" value="15" style="ellipse;whiteSpace=wrap;html=1;aspect=fixed;fontSize=24;fontStyle=1;fillColor=none;fontFamily=Times New Roman;" parent="1" vertex="1">
                    <mxGeometry x="400" y="-620" width="40" height="40" as="geometry"/>
                </mxCell>
                <mxCell id="273" value="16" style="ellipse;whiteSpace=wrap;html=1;aspect=fixed;fontSize=24;fontStyle=1;fillColor=none;fontFamily=Times New Roman;" parent="1" vertex="1">
                    <mxGeometry x="400" y="-580" width="40" height="40" as="geometry"/>
                </mxCell>
                <mxCell id="275" value="13" style="ellipse;whiteSpace=wrap;html=1;aspect=fixed;fontSize=24;fontStyle=1;fillColor=none;fontFamily=Times New Roman;" parent="1" vertex="1">
                    <mxGeometry x="1110" y="-560" width="40" height="40" as="geometry"/>
                </mxCell>
                <mxCell id="276" value="14" style="ellipse;whiteSpace=wrap;html=1;aspect=fixed;fontSize=24;fontStyle=1;fillColor=none;fontFamily=Times New Roman;" parent="1" vertex="1">
                    <mxGeometry x="1110" y="-520" width="40" height="40" as="geometry"/>
                </mxCell>
                <mxCell id="277" value="15" style="ellipse;whiteSpace=wrap;html=1;aspect=fixed;fontSize=24;fontStyle=1;fillColor=none;fontFamily=Times New Roman;" parent="1" vertex="1">
                    <mxGeometry x="1110" y="-480" width="40" height="40" as="geometry"/>
                </mxCell>
                <mxCell id="278" value="1" style="ellipse;whiteSpace=wrap;html=1;aspect=fixed;fontSize=24;fontStyle=1;fillColor=none;fontFamily=Times New Roman;" parent="1" vertex="1">
                    <mxGeometry x="1070" y="-720" width="40" height="40" as="geometry"/>
                </mxCell>
                <mxCell id="279" value="2" style="ellipse;whiteSpace=wrap;html=1;aspect=fixed;fontSize=24;fontStyle=1;fillColor=none;fontFamily=Times New Roman;" parent="1" vertex="1">
                    <mxGeometry x="1070" y="-680" width="40" height="40" as="geometry"/>
                </mxCell>
                <mxCell id="280" value="3" style="ellipse;whiteSpace=wrap;html=1;aspect=fixed;fontSize=24;fontStyle=1;fillColor=none;fontFamily=Times New Roman;" parent="1" vertex="1">
                    <mxGeometry x="1070" y="-640" width="40" height="40" as="geometry"/>
                </mxCell>
                <mxCell id="281" value="4" style="ellipse;whiteSpace=wrap;html=1;aspect=fixed;fontSize=24;fontStyle=1;fillColor=none;fontFamily=Times New Roman;" parent="1" vertex="1">
                    <mxGeometry x="1070" y="-600" width="40" height="40" as="geometry"/>
                </mxCell>
                <mxCell id="282" value="5" style="ellipse;whiteSpace=wrap;html=1;aspect=fixed;fontSize=24;fontStyle=1;fillColor=none;fontFamily=Times New Roman;" parent="1" vertex="1">
                    <mxGeometry x="1070" y="-560" width="40" height="40" as="geometry"/>
                </mxCell>
                <mxCell id="283" value="6" style="ellipse;whiteSpace=wrap;html=1;aspect=fixed;fontSize=24;fontStyle=1;fillColor=none;fontFamily=Times New Roman;" parent="1" vertex="1">
                    <mxGeometry x="1070" y="-520" width="40" height="40" as="geometry"/>
                </mxCell>
                <mxCell id="284" value="7" style="ellipse;whiteSpace=wrap;html=1;aspect=fixed;fontSize=24;fontStyle=1;fillColor=none;fontFamily=Times New Roman;" parent="1" vertex="1">
                    <mxGeometry x="1070" y="-480" width="40" height="40" as="geometry"/>
                </mxCell>
                <mxCell id="285" value="0" style="ellipse;whiteSpace=wrap;html=1;aspect=fixed;fontSize=24;fontStyle=1;fillColor=none;fontFamily=Times New Roman;" parent="1" vertex="1">
                    <mxGeometry x="1070" y="-760" width="40" height="40" as="geometry"/>
                </mxCell>
                <mxCell id="286" value="8" style="ellipse;whiteSpace=wrap;html=1;aspect=fixed;fontSize=24;fontStyle=1;fillColor=none;fontFamily=Times New Roman;" parent="1" vertex="1">
                    <mxGeometry x="1110" y="-760" width="40" height="40" as="geometry"/>
                </mxCell>
                <mxCell id="287" value="9" style="ellipse;whiteSpace=wrap;html=1;aspect=fixed;fontSize=24;fontStyle=1;fillColor=none;fontFamily=Times New Roman;" parent="1" vertex="1">
                    <mxGeometry x="1110" y="-720" width="40" height="40" as="geometry"/>
                </mxCell>
                <mxCell id="288" value="10" style="ellipse;whiteSpace=wrap;html=1;aspect=fixed;fontSize=24;fontStyle=1;fillColor=none;fontFamily=Times New Roman;" parent="1" vertex="1">
                    <mxGeometry x="1110" y="-680" width="40" height="40" as="geometry"/>
                </mxCell>
                <mxCell id="289" value="11" style="ellipse;whiteSpace=wrap;html=1;aspect=fixed;fontSize=24;fontStyle=1;fillColor=none;fontFamily=Times New Roman;" parent="1" vertex="1">
                    <mxGeometry x="1110" y="-640" width="40" height="40" as="geometry"/>
                </mxCell>
                <mxCell id="290" value="12" style="ellipse;whiteSpace=wrap;html=1;aspect=fixed;fontSize=24;fontStyle=1;fillColor=none;fontFamily=Times New Roman;" parent="1" vertex="1">
                    <mxGeometry x="1110" y="-600" width="40" height="40" as="geometry"/>
                </mxCell>
                <mxCell id="291" value="16" style="ellipse;whiteSpace=wrap;html=1;aspect=fixed;fontSize=24;fontStyle=1;fillColor=none;fontFamily=Times New Roman;" parent="1" vertex="1">
                    <mxGeometry x="1150" y="-620" width="40" height="40" as="geometry"/>
                </mxCell>
                <mxCell id="292" value="17" style="ellipse;whiteSpace=wrap;html=1;aspect=fixed;fontSize=24;fontStyle=1;fillColor=none;fontFamily=Times New Roman;" parent="1" vertex="1">
                    <mxGeometry x="400" y="-540" width="40" height="40" as="geometry"/>
                </mxCell>
                <mxCell id="294" value="13" style="ellipse;whiteSpace=wrap;html=1;aspect=fixed;fontSize=24;fontStyle=1;fillColor=none;fontFamily=Times New Roman;" parent="1" vertex="1">
                    <mxGeometry x="600" y="-520" width="40" height="40" as="geometry"/>
                </mxCell>
                <mxCell id="295" value="14" style="ellipse;whiteSpace=wrap;html=1;aspect=fixed;fontSize=24;fontStyle=1;fillColor=none;fontFamily=Times New Roman;" parent="1" vertex="1">
                    <mxGeometry x="600" y="-480" width="40" height="40" as="geometry"/>
                </mxCell>
                <mxCell id="296" value="1" style="ellipse;whiteSpace=wrap;html=1;aspect=fixed;fontSize=24;fontStyle=1;fillColor=none;fontFamily=Times New Roman;" parent="1" vertex="1">
                    <mxGeometry x="560" y="-680" width="40" height="40" as="geometry"/>
                </mxCell>
                <mxCell id="297" value="2" style="ellipse;whiteSpace=wrap;html=1;aspect=fixed;fontSize=24;fontStyle=1;fillColor=none;fontFamily=Times New Roman;" parent="1" vertex="1">
                    <mxGeometry x="560" y="-640" width="40" height="40" as="geometry"/>
                </mxCell>
                <mxCell id="298" value="3" style="ellipse;whiteSpace=wrap;html=1;aspect=fixed;fontSize=24;fontStyle=1;fillColor=none;fontFamily=Times New Roman;" parent="1" vertex="1">
                    <mxGeometry x="560" y="-600" width="40" height="40" as="geometry"/>
                </mxCell>
                <mxCell id="299" value="4" style="ellipse;whiteSpace=wrap;html=1;aspect=fixed;fontSize=24;fontStyle=1;fillColor=none;fontFamily=Times New Roman;" parent="1" vertex="1">
                    <mxGeometry x="560" y="-560" width="40" height="40" as="geometry"/>
                </mxCell>
                <mxCell id="300" value="5" style="ellipse;whiteSpace=wrap;html=1;aspect=fixed;fontSize=24;fontStyle=1;fillColor=none;fontFamily=Times New Roman;" parent="1" vertex="1">
                    <mxGeometry x="560" y="-520" width="40" height="40" as="geometry"/>
                </mxCell>
                <mxCell id="301" value="6" style="ellipse;whiteSpace=wrap;html=1;aspect=fixed;fontSize=24;fontStyle=1;fillColor=none;fontFamily=Times New Roman;" parent="1" vertex="1">
                    <mxGeometry x="560" y="-480" width="40" height="40" as="geometry"/>
                </mxCell>
                <mxCell id="302" value="7" style="ellipse;whiteSpace=wrap;html=1;aspect=fixed;fontSize=24;fontStyle=1;fillColor=none;fontFamily=Times New Roman;" parent="1" vertex="1">
                    <mxGeometry x="560" y="-440" width="40" height="40" as="geometry"/>
                </mxCell>
                <mxCell id="303" value="0" style="ellipse;whiteSpace=wrap;html=1;aspect=fixed;fontSize=24;fontStyle=1;fillColor=none;fontFamily=Times New Roman;" parent="1" vertex="1">
                    <mxGeometry x="560" y="-720" width="40" height="40" as="geometry"/>
                </mxCell>
                <mxCell id="304" value="8" style="ellipse;whiteSpace=wrap;html=1;aspect=fixed;fontSize=24;fontStyle=1;fillColor=none;fontFamily=Times New Roman;" parent="1" vertex="1">
                    <mxGeometry x="600" y="-720" width="40" height="40" as="geometry"/>
                </mxCell>
                <mxCell id="305" value="9" style="ellipse;whiteSpace=wrap;html=1;aspect=fixed;fontSize=24;fontStyle=1;fillColor=none;fontFamily=Times New Roman;" parent="1" vertex="1">
                    <mxGeometry x="600" y="-680" width="40" height="40" as="geometry"/>
                </mxCell>
                <mxCell id="306" value="10" style="ellipse;whiteSpace=wrap;html=1;aspect=fixed;fontSize=24;fontStyle=1;fillColor=none;fontFamily=Times New Roman;" parent="1" vertex="1">
                    <mxGeometry x="600" y="-640" width="40" height="40" as="geometry"/>
                </mxCell>
                <mxCell id="307" value="11" style="ellipse;whiteSpace=wrap;html=1;aspect=fixed;fontSize=24;fontStyle=1;fillColor=none;fontFamily=Times New Roman;" parent="1" vertex="1">
                    <mxGeometry x="600" y="-600" width="40" height="40" as="geometry"/>
                </mxCell>
                <mxCell id="308" value="12" style="ellipse;whiteSpace=wrap;html=1;aspect=fixed;fontSize=24;fontStyle=1;fillColor=none;fontFamily=Times New Roman;" parent="1" vertex="1">
                    <mxGeometry x="600" y="-560" width="40" height="40" as="geometry"/>
                </mxCell>
                <mxCell id="309" value="15" style="ellipse;whiteSpace=wrap;html=1;aspect=fixed;fontSize=24;fontStyle=1;fillColor=none;fontFamily=Times New Roman;" parent="1" vertex="1">
                    <mxGeometry x="600" y="-440" width="40" height="40" as="geometry"/>
                </mxCell>
                <mxCell id="310" value="16" style="ellipse;whiteSpace=wrap;html=1;aspect=fixed;fontSize=24;fontStyle=1;fillColor=none;fontFamily=Times New Roman;" parent="1" vertex="1">
                    <mxGeometry x="640" y="-600" width="40" height="40" as="geometry"/>
                </mxCell>
                <mxCell id="311" value="17" style="ellipse;whiteSpace=wrap;html=1;aspect=fixed;fontSize=24;fontStyle=1;fillColor=none;fontFamily=Times New Roman;" parent="1" vertex="1">
                    <mxGeometry x="640" y="-560" width="40" height="40" as="geometry"/>
                </mxCell>
                <mxCell id="312" value="13" style="ellipse;whiteSpace=wrap;html=1;aspect=fixed;fontSize=24;fontStyle=1;fillColor=none;fontFamily=Times New Roman;" parent="1" vertex="1">
                    <mxGeometry x="120" y="-600" width="40" height="40" as="geometry"/>
                </mxCell>
                <mxCell id="313" value="14" style="ellipse;whiteSpace=wrap;html=1;aspect=fixed;fontSize=24;fontStyle=1;fillColor=none;fontFamily=Times New Roman;" parent="1" vertex="1">
                    <mxGeometry x="120" y="-560" width="40" height="40" as="geometry"/>
                </mxCell>
                <mxCell id="314" value="1" style="ellipse;whiteSpace=wrap;html=1;aspect=fixed;fontSize=24;fontStyle=1;fillColor=none;fontFamily=Times New Roman;" parent="1" vertex="1">
                    <mxGeometry x="40" y="-680" width="40" height="40" as="geometry"/>
                </mxCell>
                <mxCell id="315" value="2" style="ellipse;whiteSpace=wrap;html=1;aspect=fixed;fontSize=24;fontStyle=1;fillColor=none;fontFamily=Times New Roman;" parent="1" vertex="1">
                    <mxGeometry x="40" y="-640" width="40" height="40" as="geometry"/>
                </mxCell>
                <mxCell id="316" value="3" style="ellipse;whiteSpace=wrap;html=1;aspect=fixed;fontSize=24;fontStyle=1;fillColor=none;fontFamily=Times New Roman;" parent="1" vertex="1">
                    <mxGeometry x="40" y="-600" width="40" height="40" as="geometry"/>
                </mxCell>
                <mxCell id="317" value="4" style="ellipse;whiteSpace=wrap;html=1;aspect=fixed;fontSize=24;fontStyle=1;fillColor=none;fontFamily=Times New Roman;" parent="1" vertex="1">
                    <mxGeometry x="40" y="-560" width="40" height="40" as="geometry"/>
                </mxCell>
                <mxCell id="318" value="5" style="ellipse;whiteSpace=wrap;html=1;aspect=fixed;fontSize=24;fontStyle=1;fillColor=none;fontFamily=Times New Roman;" parent="1" vertex="1">
                    <mxGeometry x="80" y="-720" width="40" height="40" as="geometry"/>
                </mxCell>
                <mxCell id="319" value="6" style="ellipse;whiteSpace=wrap;html=1;aspect=fixed;fontSize=24;fontStyle=1;fillColor=none;fontFamily=Times New Roman;" parent="1" vertex="1">
                    <mxGeometry x="80" y="-680" width="40" height="40" as="geometry"/>
                </mxCell>
                <mxCell id="320" value="7" style="ellipse;whiteSpace=wrap;html=1;aspect=fixed;fontSize=24;fontStyle=1;fillColor=none;fontFamily=Times New Roman;" parent="1" vertex="1">
                    <mxGeometry x="80" y="-640" width="40" height="40" as="geometry"/>
                </mxCell>
                <mxCell id="321" value="0" style="ellipse;whiteSpace=wrap;html=1;aspect=fixed;fontSize=24;fontStyle=1;fillColor=none;fontFamily=Times New Roman;" parent="1" vertex="1">
                    <mxGeometry x="40" y="-720" width="40" height="40" as="geometry"/>
                </mxCell>
                <mxCell id="322" value="8" style="ellipse;whiteSpace=wrap;html=1;aspect=fixed;fontSize=24;fontStyle=1;fillColor=none;fontFamily=Times New Roman;" parent="1" vertex="1">
                    <mxGeometry x="80" y="-600" width="40" height="40" as="geometry"/>
                </mxCell>
                <mxCell id="323" value="9" style="ellipse;whiteSpace=wrap;html=1;aspect=fixed;fontSize=24;fontStyle=1;fillColor=none;fontFamily=Times New Roman;" parent="1" vertex="1">
                    <mxGeometry x="80" y="-560" width="40" height="40" as="geometry"/>
                </mxCell>
                <mxCell id="324" value="10" style="ellipse;whiteSpace=wrap;html=1;aspect=fixed;fontSize=24;fontStyle=1;fillColor=none;fontFamily=Times New Roman;" parent="1" vertex="1">
                    <mxGeometry x="120" y="-720" width="40" height="40" as="geometry"/>
                </mxCell>
                <mxCell id="325" value="11" style="ellipse;whiteSpace=wrap;html=1;aspect=fixed;fontSize=24;fontStyle=1;fillColor=none;fontFamily=Times New Roman;" parent="1" vertex="1">
                    <mxGeometry x="120" y="-680" width="40" height="40" as="geometry"/>
                </mxCell>
                <mxCell id="326" value="12" style="ellipse;whiteSpace=wrap;html=1;aspect=fixed;fontSize=24;fontStyle=1;fillColor=none;fontFamily=Times New Roman;" parent="1" vertex="1">
                    <mxGeometry x="120" y="-640" width="40" height="40" as="geometry"/>
                </mxCell>
                <mxCell id="327" value="15" style="ellipse;whiteSpace=wrap;html=1;aspect=fixed;fontSize=24;fontStyle=1;fillColor=none;fontFamily=Times New Roman;" parent="1" vertex="1">
                    <mxGeometry x="160" y="-680" width="40" height="40" as="geometry"/>
                </mxCell>
                <mxCell id="328" value="16" style="ellipse;whiteSpace=wrap;html=1;aspect=fixed;fontSize=24;fontStyle=1;fillColor=none;fontFamily=Times New Roman;" parent="1" vertex="1">
                    <mxGeometry x="160" y="-640" width="40" height="40" as="geometry"/>
                </mxCell>
                <mxCell id="329" value="17" style="ellipse;whiteSpace=wrap;html=1;aspect=fixed;fontSize=24;fontStyle=1;fillColor=none;fontFamily=Times New Roman;" parent="1" vertex="1">
                    <mxGeometry x="160" y="-600" width="40" height="40" as="geometry"/>
                </mxCell>
                <mxCell id="330" value="13" style="ellipse;whiteSpace=wrap;html=1;aspect=fixed;fontSize=24;fontStyle=1;fillColor=none;fontFamily=Times New Roman;" parent="1" vertex="1">
                    <mxGeometry x="-160" y="-680" width="40" height="40" as="geometry"/>
                </mxCell>
                <mxCell id="331" value="14" style="ellipse;whiteSpace=wrap;html=1;aspect=fixed;fontSize=24;fontStyle=1;fillColor=none;fontFamily=Times New Roman;" parent="1" vertex="1">
                    <mxGeometry x="-160" y="-640" width="40" height="40" as="geometry"/>
                </mxCell>
                <mxCell id="332" value="1" style="ellipse;whiteSpace=wrap;html=1;aspect=fixed;fontSize=24;fontStyle=1;fillColor=none;fontFamily=Times New Roman;" parent="1" vertex="1">
                    <mxGeometry x="-280" y="-680" width="40" height="40" as="geometry"/>
                </mxCell>
                <mxCell id="333" value="2" style="ellipse;whiteSpace=wrap;html=1;aspect=fixed;fontSize=24;fontStyle=1;fillColor=none;fontFamily=Times New Roman;" parent="1" vertex="1">
                    <mxGeometry x="-280" y="-640" width="40" height="40" as="geometry"/>
                </mxCell>
                <mxCell id="334" value="3" style="ellipse;whiteSpace=wrap;html=1;aspect=fixed;fontSize=24;fontStyle=1;fillColor=none;fontFamily=Times New Roman;" parent="1" vertex="1">
                    <mxGeometry x="-280" y="-600" width="40" height="40" as="geometry"/>
                </mxCell>
                <mxCell id="335" value="4" style="ellipse;whiteSpace=wrap;html=1;aspect=fixed;fontSize=24;fontStyle=1;fillColor=none;fontFamily=Times New Roman;" parent="1" vertex="1">
                    <mxGeometry x="-240" y="-720" width="40" height="40" as="geometry"/>
                </mxCell>
                <mxCell id="336" value="5" style="ellipse;whiteSpace=wrap;html=1;aspect=fixed;fontSize=24;fontStyle=1;fillColor=none;fontFamily=Times New Roman;" parent="1" vertex="1">
                    <mxGeometry x="-240" y="-680" width="40" height="40" as="geometry"/>
                </mxCell>
                <mxCell id="337" value="6" style="ellipse;whiteSpace=wrap;html=1;aspect=fixed;fontSize=24;fontStyle=1;fillColor=none;fontFamily=Times New Roman;" parent="1" vertex="1">
                    <mxGeometry x="-240" y="-640" width="40" height="40" as="geometry"/>
                </mxCell>
                <mxCell id="338" value="7" style="ellipse;whiteSpace=wrap;html=1;aspect=fixed;fontSize=24;fontStyle=1;fillColor=none;fontFamily=Times New Roman;" parent="1" vertex="1">
                    <mxGeometry x="-240" y="-600" width="40" height="40" as="geometry"/>
                </mxCell>
                <mxCell id="339" value="0" style="ellipse;whiteSpace=wrap;html=1;aspect=fixed;fontSize=24;fontStyle=1;fillColor=none;fontFamily=Times New Roman;" parent="1" vertex="1">
                    <mxGeometry x="-280" y="-720" width="40" height="40" as="geometry"/>
                </mxCell>
                <mxCell id="340" value="8" style="ellipse;whiteSpace=wrap;html=1;aspect=fixed;fontSize=24;fontStyle=1;fillColor=none;fontFamily=Times New Roman;" parent="1" vertex="1">
                    <mxGeometry x="-200" y="-720" width="40" height="40" as="geometry"/>
                </mxCell>
                <mxCell id="341" value="9" style="ellipse;whiteSpace=wrap;html=1;aspect=fixed;fontSize=24;fontStyle=1;fillColor=none;fontFamily=Times New Roman;" parent="1" vertex="1">
                    <mxGeometry x="-200" y="-680" width="40" height="40" as="geometry"/>
                </mxCell>
                <mxCell id="342" value="10" style="ellipse;whiteSpace=wrap;html=1;aspect=fixed;fontSize=24;fontStyle=1;fillColor=none;fontFamily=Times New Roman;" parent="1" vertex="1">
                    <mxGeometry x="-200" y="-640" width="40" height="40" as="geometry"/>
                </mxCell>
                <mxCell id="343" value="11" style="ellipse;whiteSpace=wrap;html=1;aspect=fixed;fontSize=24;fontStyle=1;fillColor=none;fontFamily=Times New Roman;" parent="1" vertex="1">
                    <mxGeometry x="-200" y="-600" width="40" height="40" as="geometry"/>
                </mxCell>
                <mxCell id="344" value="12" style="ellipse;whiteSpace=wrap;html=1;aspect=fixed;fontSize=24;fontStyle=1;fillColor=none;fontFamily=Times New Roman;" parent="1" vertex="1">
                    <mxGeometry x="-160" y="-720" width="40" height="40" as="geometry"/>
                </mxCell>
                <mxCell id="345" value="15" style="ellipse;whiteSpace=wrap;html=1;aspect=fixed;fontSize=24;fontStyle=1;fillColor=none;fontFamily=Times New Roman;" parent="1" vertex="1">
                    <mxGeometry x="-160" y="-600" width="40" height="40" as="geometry"/>
                </mxCell>
                <mxCell id="346" value="16" style="ellipse;whiteSpace=wrap;html=1;aspect=fixed;fontSize=24;fontStyle=1;fillColor=none;fontFamily=Times New Roman;" parent="1" vertex="1">
                    <mxGeometry x="-120" y="-680" width="40" height="40" as="geometry"/>
                </mxCell>
                <mxCell id="347" value="17" style="ellipse;whiteSpace=wrap;html=1;aspect=fixed;fontSize=24;fontStyle=1;fillColor=none;fontFamily=Times New Roman;" parent="1" vertex="1">
                    <mxGeometry x="-120" y="-640" width="40" height="40" as="geometry"/>
                </mxCell>
                <mxCell id="349" value="" style="shape=curlyBracket;whiteSpace=wrap;html=1;rounded=1;" parent="1" vertex="1">
                    <mxGeometry x="-300" y="-720" width="20" height="160" as="geometry"/>
                </mxCell>
                <mxCell id="350" value="4" style="text;html=1;strokeColor=default;fillColor=none;align=center;verticalAlign=middle;whiteSpace=wrap;rounded=0;fontFamily=Times New Roman;fontSize=20;" parent="1" vertex="1">
                    <mxGeometry x="-320" y="-660" width="20" height="40" as="geometry"/>
                </mxCell>
                <mxCell id="351" value="" style="shape=curlyBracket;whiteSpace=wrap;html=1;rounded=1;flipH=1;fontFamily=Times New Roman;fontSize=20;" parent="1" vertex="1">
                    <mxGeometry x="-80" y="-680" width="20" height="80" as="geometry"/>
                </mxCell>
                <mxCell id="352" value="2" style="text;html=1;strokeColor=default;fillColor=none;align=center;verticalAlign=middle;whiteSpace=wrap;rounded=0;fontFamily=Times New Roman;fontSize=20;" parent="1" vertex="1">
                    <mxGeometry x="-60" y="-660" width="20" height="40" as="geometry"/>
                </mxCell>
                <mxCell id="353" value="" style="shape=curlyBracket;whiteSpace=wrap;html=1;rounded=1;" parent="1" vertex="1">
                    <mxGeometry x="20" y="-720" width="20" height="200" as="geometry"/>
                </mxCell>
                <mxCell id="354" value="5" style="text;html=1;strokeColor=default;fillColor=none;align=center;verticalAlign=middle;whiteSpace=wrap;rounded=0;fontFamily=Times New Roman;fontSize=20;" parent="1" vertex="1">
                    <mxGeometry y="-640" width="20" height="40" as="geometry"/>
                </mxCell>
                <mxCell id="355" value="" style="shape=curlyBracket;whiteSpace=wrap;html=1;rounded=1;flipH=1;fontFamily=Times New Roman;fontSize=20;" parent="1" vertex="1">
                    <mxGeometry x="200" y="-680" width="20" height="120" as="geometry"/>
                </mxCell>
                <mxCell id="356" value="3" style="text;html=1;strokeColor=default;fillColor=none;align=center;verticalAlign=middle;whiteSpace=wrap;rounded=0;fontFamily=Times New Roman;fontSize=20;" parent="1" vertex="1">
                    <mxGeometry x="220" y="-640" width="20" height="40" as="geometry"/>
                </mxCell>
                <mxCell id="357" value="" style="shape=curlyBracket;whiteSpace=wrap;html=1;rounded=1;" parent="1" vertex="1">
                    <mxGeometry x="300" y="-720" width="20" height="280" as="geometry"/>
                </mxCell>
                <mxCell id="358" value="7" style="text;html=1;strokeColor=default;fillColor=none;align=center;verticalAlign=middle;whiteSpace=wrap;rounded=0;fontFamily=Times New Roman;fontSize=20;" parent="1" vertex="1">
                    <mxGeometry x="280" y="-600" width="20" height="40" as="geometry"/>
                </mxCell>
                <mxCell id="359" value="" style="shape=curlyBracket;whiteSpace=wrap;html=1;rounded=1;flipH=1;fontFamily=Times New Roman;fontSize=20;" parent="1" vertex="1">
                    <mxGeometry x="440" y="-660" width="20" height="160" as="geometry"/>
                </mxCell>
                <mxCell id="360" value="4" style="text;html=1;strokeColor=default;fillColor=none;align=center;verticalAlign=middle;whiteSpace=wrap;rounded=0;fontFamily=Times New Roman;fontSize=20;" parent="1" vertex="1">
                    <mxGeometry x="460" y="-600" width="20" height="40" as="geometry"/>
                </mxCell>
                <mxCell id="361" value="" style="shape=curlyBracket;whiteSpace=wrap;html=1;rounded=1;" parent="1" vertex="1">
                    <mxGeometry x="540" y="-720" width="20" height="320" as="geometry"/>
                </mxCell>
                <mxCell id="362" value="8" style="text;html=1;strokeColor=default;fillColor=none;align=center;verticalAlign=middle;whiteSpace=wrap;rounded=0;fontFamily=Times New Roman;fontSize=20;" parent="1" vertex="1">
                    <mxGeometry x="520" y="-580" width="20" height="40" as="geometry"/>
                </mxCell>
                <mxCell id="363" value="" style="shape=curlyBracket;whiteSpace=wrap;html=1;rounded=1;flipH=1;fontFamily=Times New Roman;fontSize=20;" parent="1" vertex="1">
                    <mxGeometry x="680" y="-600" width="20" height="80" as="geometry"/>
                </mxCell>
                <mxCell id="364" value="2" style="text;html=1;strokeColor=default;fillColor=none;align=center;verticalAlign=middle;whiteSpace=wrap;rounded=0;fontFamily=Times New Roman;fontSize=20;" parent="1" vertex="1">
                    <mxGeometry x="700" y="-580" width="20" height="40" as="geometry"/>
                </mxCell>
                <mxCell id="365" value="1" style="ellipse;whiteSpace=wrap;html=1;aspect=fixed;fontSize=24;fontStyle=1;fillColor=none;fontFamily=Times New Roman;" parent="1" vertex="1">
                    <mxGeometry x="-160" y="-240" width="40" height="40" as="geometry"/>
                </mxCell>
                <mxCell id="366" value="2" style="ellipse;whiteSpace=wrap;html=1;aspect=fixed;fontSize=24;fontStyle=1;fillColor=none;fontFamily=Times New Roman;" parent="1" vertex="1">
                    <mxGeometry x="-160" y="-200" width="40" height="40" as="geometry"/>
                </mxCell>
                <mxCell id="367" value="3" style="ellipse;whiteSpace=wrap;html=1;aspect=fixed;fontSize=24;fontStyle=1;fillColor=none;fontFamily=Times New Roman;" parent="1" vertex="1">
                    <mxGeometry x="-160" y="-160" width="40" height="40" as="geometry"/>
                </mxCell>
                <mxCell id="368" value="4" style="ellipse;whiteSpace=wrap;html=1;aspect=fixed;fontSize=24;fontStyle=1;fillColor=none;fontFamily=Times New Roman;" parent="1" vertex="1">
                    <mxGeometry x="-160" y="-120" width="40" height="40" as="geometry"/>
                </mxCell>
                <mxCell id="369" value="5" style="ellipse;whiteSpace=wrap;html=1;aspect=fixed;fontSize=24;fontStyle=1;fillColor=none;fontFamily=Times New Roman;" parent="1" vertex="1">
                    <mxGeometry x="-120" y="-200" width="40" height="40" as="geometry"/>
                </mxCell>
                <mxCell id="371" value="0" style="ellipse;whiteSpace=wrap;html=1;aspect=fixed;fontSize=24;fontStyle=1;fillColor=none;fontFamily=Times New Roman;" parent="1" vertex="1">
                    <mxGeometry x="-160" y="-280" width="40" height="40" as="geometry"/>
                </mxCell>
                <mxCell id="372" value="1" style="ellipse;whiteSpace=wrap;html=1;aspect=fixed;fontSize=24;fontStyle=1;fillColor=none;fontFamily=Times New Roman;" parent="1" vertex="1">
                    <mxGeometry x="160" y="-240" width="40" height="40" as="geometry"/>
                </mxCell>
                <mxCell id="373" value="2" style="ellipse;whiteSpace=wrap;html=1;aspect=fixed;fontSize=24;fontStyle=1;fillColor=none;fontFamily=Times New Roman;" parent="1" vertex="1">
                    <mxGeometry x="160" y="-200" width="40" height="40" as="geometry"/>
                </mxCell>
                <mxCell id="374" value="3" style="ellipse;whiteSpace=wrap;html=1;aspect=fixed;fontSize=24;fontStyle=1;fillColor=none;fontFamily=Times New Roman;" parent="1" vertex="1">
                    <mxGeometry x="160" y="-160" width="40" height="40" as="geometry"/>
                </mxCell>
                <mxCell id="375" value="4" style="ellipse;whiteSpace=wrap;html=1;aspect=fixed;fontSize=24;fontStyle=1;fillColor=none;fontFamily=Times New Roman;" parent="1" vertex="1">
                    <mxGeometry x="160" y="-120" width="40" height="40" as="geometry"/>
                </mxCell>
                <mxCell id="376" value="5" style="ellipse;whiteSpace=wrap;html=1;aspect=fixed;fontSize=24;fontStyle=1;fillColor=none;fontFamily=Times New Roman;" parent="1" vertex="1">
                    <mxGeometry x="200" y="-240" width="40" height="40" as="geometry"/>
                </mxCell>
                <mxCell id="377" value="6" style="ellipse;whiteSpace=wrap;html=1;aspect=fixed;fontSize=24;fontStyle=1;fillColor=none;fontFamily=Times New Roman;" parent="1" vertex="1">
                    <mxGeometry x="200" y="-200" width="40" height="40" as="geometry"/>
                </mxCell>
                <mxCell id="378" value="0" style="ellipse;whiteSpace=wrap;html=1;aspect=fixed;fontSize=24;fontStyle=1;fillColor=none;fontFamily=Times New Roman;" parent="1" vertex="1">
                    <mxGeometry x="160" y="-280" width="40" height="40" as="geometry"/>
                </mxCell>
                <mxCell id="384" value="6" style="ellipse;whiteSpace=wrap;html=1;aspect=fixed;fontSize=24;fontStyle=1;fillColor=none;fontFamily=Times New Roman;" parent="1" vertex="1">
                    <mxGeometry x="-140" y="170" width="40" height="40" as="geometry"/>
                </mxCell>
                <mxCell id="387" value="1" style="ellipse;whiteSpace=wrap;html=1;aspect=fixed;fontSize=24;fontStyle=1;fillColor=none;fontFamily=Times New Roman;" parent="1" vertex="1">
                    <mxGeometry x="-1840" y="520" width="40" height="40" as="geometry"/>
                </mxCell>
                <mxCell id="388" value="2" style="ellipse;whiteSpace=wrap;html=1;aspect=fixed;fontSize=24;fontStyle=1;fillColor=none;fontFamily=Times New Roman;" parent="1" vertex="1">
                    <mxGeometry x="-1840" y="580" width="40" height="40" as="geometry"/>
                </mxCell>
                <mxCell id="389" value="3" style="ellipse;whiteSpace=wrap;html=1;aspect=fixed;fontSize=24;fontStyle=1;fillColor=none;fontFamily=Times New Roman;" parent="1" vertex="1">
                    <mxGeometry x="-1840" y="640" width="40" height="40" as="geometry"/>
                </mxCell>
                <mxCell id="390" value="4" style="ellipse;whiteSpace=wrap;html=1;aspect=fixed;fontSize=24;fontStyle=1;fillColor=none;fontFamily=Times New Roman;" parent="1" vertex="1">
                    <mxGeometry x="-1840" y="700" width="40" height="40" as="geometry"/>
                </mxCell>
                <mxCell id="391" value="5" style="ellipse;whiteSpace=wrap;html=1;aspect=fixed;fontSize=24;fontStyle=1;fillColor=none;fontFamily=Times New Roman;" parent="1" vertex="1">
                    <mxGeometry x="-1840" y="760" width="40" height="40" as="geometry"/>
                </mxCell>
                <mxCell id="392" value="0" style="ellipse;whiteSpace=wrap;html=1;aspect=fixed;fontSize=24;fontStyle=1;fillColor=none;fontFamily=Times New Roman;" parent="1" vertex="1">
                    <mxGeometry x="-1840" y="460" width="40" height="40" as="geometry"/>
                </mxCell>
                <mxCell id="400" value="6" style="ellipse;whiteSpace=wrap;html=1;aspect=fixed;fontSize=24;fontStyle=1;fillColor=none;fontFamily=Times New Roman;" parent="1" vertex="1">
                    <mxGeometry x="20" y="150" width="40" height="40" as="geometry"/>
                </mxCell>
                <mxCell id="401" value="1" style="ellipse;whiteSpace=wrap;html=1;aspect=fixed;fontSize=24;fontStyle=1;fillColor=none;fontFamily=Times New Roman;" parent="1" vertex="1">
                    <mxGeometry x="-20" y="110" width="40" height="40" as="geometry"/>
                </mxCell>
                <mxCell id="402" value="2" style="ellipse;whiteSpace=wrap;html=1;aspect=fixed;fontSize=24;fontStyle=1;fillColor=none;fontFamily=Times New Roman;" parent="1" vertex="1">
                    <mxGeometry x="-20" y="150" width="40" height="40" as="geometry"/>
                </mxCell>
                <mxCell id="403" value="3" style="ellipse;whiteSpace=wrap;html=1;aspect=fixed;fontSize=24;fontStyle=1;fillColor=none;fontFamily=Times New Roman;" parent="1" vertex="1">
                    <mxGeometry x="-20" y="190" width="40" height="40" as="geometry"/>
                </mxCell>
                <mxCell id="404" value="4" style="ellipse;whiteSpace=wrap;html=1;aspect=fixed;fontSize=24;fontStyle=1;fillColor=none;fontFamily=Times New Roman;" parent="1" vertex="1">
                    <mxGeometry x="-20" y="230" width="40" height="40" as="geometry"/>
                </mxCell>
                <mxCell id="405" value="5" style="ellipse;whiteSpace=wrap;html=1;aspect=fixed;fontSize=24;fontStyle=1;fillColor=none;fontFamily=Times New Roman;" parent="1" vertex="1">
                    <mxGeometry x="-20" y="270" width="40" height="40" as="geometry"/>
                </mxCell>
                <mxCell id="406" value="0" style="ellipse;whiteSpace=wrap;html=1;aspect=fixed;fontSize=24;fontStyle=1;fillColor=none;fontFamily=Times New Roman;" parent="1" vertex="1">
                    <mxGeometry x="-20" y="70" width="40" height="40" as="geometry"/>
                </mxCell>
                <mxCell id="407" value="7" style="ellipse;whiteSpace=wrap;html=1;aspect=fixed;fontSize=24;fontStyle=1;fillColor=none;fontFamily=Times New Roman;" parent="1" vertex="1">
                    <mxGeometry x="20" y="190" width="40" height="40" as="geometry"/>
                </mxCell>
                <mxCell id="408" value="6" style="ellipse;whiteSpace=wrap;html=1;aspect=fixed;fontSize=24;fontStyle=1;fillColor=none;fontFamily=Times New Roman;" parent="1" vertex="1">
                    <mxGeometry x="180" y="130" width="40" height="40" as="geometry"/>
                </mxCell>
                <mxCell id="409" value="1" style="ellipse;whiteSpace=wrap;html=1;aspect=fixed;fontSize=24;fontStyle=1;fillColor=none;fontFamily=Times New Roman;" parent="1" vertex="1">
                    <mxGeometry x="140" y="110" width="40" height="40" as="geometry"/>
                </mxCell>
                <mxCell id="410" value="2" style="ellipse;whiteSpace=wrap;html=1;aspect=fixed;fontSize=24;fontStyle=1;fillColor=none;fontFamily=Times New Roman;" parent="1" vertex="1">
                    <mxGeometry x="140" y="150" width="40" height="40" as="geometry"/>
                </mxCell>
                <mxCell id="411" value="3" style="ellipse;whiteSpace=wrap;html=1;aspect=fixed;fontSize=24;fontStyle=1;fillColor=none;fontFamily=Times New Roman;" parent="1" vertex="1">
                    <mxGeometry x="140" y="190" width="40" height="40" as="geometry"/>
                </mxCell>
                <mxCell id="412" value="4" style="ellipse;whiteSpace=wrap;html=1;aspect=fixed;fontSize=24;fontStyle=1;fillColor=none;fontFamily=Times New Roman;" parent="1" vertex="1">
                    <mxGeometry x="140" y="230" width="40" height="40" as="geometry"/>
                </mxCell>
                <mxCell id="413" value="5" style="ellipse;whiteSpace=wrap;html=1;aspect=fixed;fontSize=24;fontStyle=1;fillColor=none;fontFamily=Times New Roman;" parent="1" vertex="1">
                    <mxGeometry x="140" y="270" width="40" height="40" as="geometry"/>
                </mxCell>
                <mxCell id="414" value="0" style="ellipse;whiteSpace=wrap;html=1;aspect=fixed;fontSize=24;fontStyle=1;fillColor=none;fontFamily=Times New Roman;" parent="1" vertex="1">
                    <mxGeometry x="140" y="70" width="40" height="40" as="geometry"/>
                </mxCell>
                <mxCell id="415" value="7" style="ellipse;whiteSpace=wrap;html=1;aspect=fixed;fontSize=24;fontStyle=1;fillColor=none;fontFamily=Times New Roman;" parent="1" vertex="1">
                    <mxGeometry x="180" y="170" width="40" height="40" as="geometry"/>
                </mxCell>
                <mxCell id="416" value="8" style="ellipse;whiteSpace=wrap;html=1;aspect=fixed;fontSize=24;fontStyle=1;fillColor=none;fontFamily=Times New Roman;" parent="1" vertex="1">
                    <mxGeometry x="360" y="-140" width="40" height="40" as="geometry"/>
                </mxCell>
                <mxCell id="417" value="7" style="ellipse;whiteSpace=wrap;html=1;aspect=fixed;fontSize=24;fontStyle=1;fillColor=none;fontFamily=Times New Roman;" parent="1" vertex="1">
                    <mxGeometry x="360" y="-180" width="40" height="40" as="geometry"/>
                </mxCell>
                <mxCell id="418" value="1" style="ellipse;whiteSpace=wrap;html=1;aspect=fixed;fontSize=24;fontStyle=1;fillColor=none;fontFamily=Times New Roman;" parent="1" vertex="1">
                    <mxGeometry x="320" y="-240" width="40" height="40" as="geometry"/>
                </mxCell>
                <mxCell id="419" value="2" style="ellipse;whiteSpace=wrap;html=1;aspect=fixed;fontSize=24;fontStyle=1;fillColor=none;fontFamily=Times New Roman;" parent="1" vertex="1">
                    <mxGeometry x="320" y="-200" width="40" height="40" as="geometry"/>
                </mxCell>
                <mxCell id="420" value="3" style="ellipse;whiteSpace=wrap;html=1;aspect=fixed;fontSize=24;fontStyle=1;fillColor=none;fontFamily=Times New Roman;" parent="1" vertex="1">
                    <mxGeometry x="320" y="-160" width="40" height="40" as="geometry"/>
                </mxCell>
                <mxCell id="421" value="4" style="ellipse;whiteSpace=wrap;html=1;aspect=fixed;fontSize=24;fontStyle=1;fillColor=none;fontFamily=Times New Roman;" parent="1" vertex="1">
                    <mxGeometry x="320" y="-120" width="40" height="40" as="geometry"/>
                </mxCell>
                <mxCell id="422" value="5" style="ellipse;whiteSpace=wrap;html=1;aspect=fixed;fontSize=24;fontStyle=1;fillColor=none;fontFamily=Times New Roman;" parent="1" vertex="1">
                    <mxGeometry x="360" y="-260" width="40" height="40" as="geometry"/>
                </mxCell>
                <mxCell id="423" value="6" style="ellipse;whiteSpace=wrap;html=1;aspect=fixed;fontSize=24;fontStyle=1;fillColor=none;fontFamily=Times New Roman;" parent="1" vertex="1">
                    <mxGeometry x="360" y="-220" width="40" height="40" as="geometry"/>
                </mxCell>
                <mxCell id="424" value="0" style="ellipse;whiteSpace=wrap;html=1;aspect=fixed;fontSize=24;fontStyle=1;fillColor=none;fontFamily=Times New Roman;" parent="1" vertex="1">
                    <mxGeometry x="320" y="-280" width="40" height="40" as="geometry"/>
                </mxCell>
                <mxCell id="425" value="8" style="ellipse;whiteSpace=wrap;html=1;aspect=fixed;fontSize=24;fontStyle=1;fillColor=none;fontFamily=Times New Roman;" parent="1" vertex="1">
                    <mxGeometry x="340" y="190" width="40" height="40" as="geometry"/>
                </mxCell>
                <mxCell id="426" value="6" style="ellipse;whiteSpace=wrap;html=1;aspect=fixed;fontSize=24;fontStyle=1;fillColor=none;fontFamily=Times New Roman;" parent="1" vertex="1">
                    <mxGeometry x="340" y="110" width="40" height="40" as="geometry"/>
                </mxCell>
                <mxCell id="427" value="1" style="ellipse;whiteSpace=wrap;html=1;aspect=fixed;fontSize=24;fontStyle=1;fillColor=none;fontFamily=Times New Roman;" parent="1" vertex="1">
                    <mxGeometry x="300" y="110" width="40" height="40" as="geometry"/>
                </mxCell>
                <mxCell id="428" value="2" style="ellipse;whiteSpace=wrap;html=1;aspect=fixed;fontSize=24;fontStyle=1;fillColor=none;fontFamily=Times New Roman;" parent="1" vertex="1">
                    <mxGeometry x="300" y="150" width="40" height="40" as="geometry"/>
                </mxCell>
                <mxCell id="429" value="3" style="ellipse;whiteSpace=wrap;html=1;aspect=fixed;fontSize=24;fontStyle=1;fillColor=none;fontFamily=Times New Roman;" parent="1" vertex="1">
                    <mxGeometry x="300" y="190" width="40" height="40" as="geometry"/>
                </mxCell>
                <mxCell id="430" value="4" style="ellipse;whiteSpace=wrap;html=1;aspect=fixed;fontSize=24;fontStyle=1;fillColor=none;fontFamily=Times New Roman;" parent="1" vertex="1">
                    <mxGeometry x="300" y="230" width="40" height="40" as="geometry"/>
                </mxCell>
                <mxCell id="431" value="5" style="ellipse;whiteSpace=wrap;html=1;aspect=fixed;fontSize=24;fontStyle=1;fillColor=none;fontFamily=Times New Roman;" parent="1" vertex="1">
                    <mxGeometry x="300" y="270" width="40" height="40" as="geometry"/>
                </mxCell>
                <mxCell id="432" value="0" style="ellipse;whiteSpace=wrap;html=1;aspect=fixed;fontSize=24;fontStyle=1;fillColor=none;fontFamily=Times New Roman;" parent="1" vertex="1">
                    <mxGeometry x="300" y="70" width="40" height="40" as="geometry"/>
                </mxCell>
                <mxCell id="433" value="7" style="ellipse;whiteSpace=wrap;html=1;aspect=fixed;fontSize=24;fontStyle=1;fillColor=none;fontFamily=Times New Roman;" parent="1" vertex="1">
                    <mxGeometry x="340" y="150" width="40" height="40" as="geometry"/>
                </mxCell>
                <mxCell id="434" value="Impair: 5" style="shape=process;whiteSpace=wrap;html=1;backgroundOutline=1;fontFamily=Times New Roman;fontSize=20;" parent="1" vertex="1">
                    <mxGeometry x="-160" y="-370" width="560" height="60" as="geometry"/>
                </mxCell>
                <mxCell id="435" value="Pair: 6 unitÃ©s par ligne" style="shape=process;whiteSpace=wrap;html=1;backgroundOutline=1;fontFamily=Times New Roman;fontSize=20;fillColor=#f5f5f5;fontColor=#333333;strokeColor=#666666;" parent="1" vertex="1">
                    <mxGeometry x="-200" y="-40" width="600" height="60" as="geometry"/>
                </mxCell>
                <mxCell id="436" value="impair si : n &amp;amp; 1 = 1" style="shape=process;whiteSpace=wrap;html=1;backgroundOutline=1;fontFamily=Times New Roman;fontSize=20;" parent="1" vertex="1">
                    <mxGeometry x="470" y="-120" width="560" height="60" as="geometry"/>
                </mxCell>
                <mxCell id="437" value="pair si : n &amp;amp; 1 = 0" style="shape=process;whiteSpace=wrap;html=1;backgroundOutline=1;fontFamily=Times New Roman;fontSize=20;" parent="1" vertex="1">
                    <mxGeometry x="470" width="560" height="60" as="geometry"/>
                </mxCell>
                <mxCell id="438" value="row &amp;amp; 1 - last &amp;amp; 1 == 0&lt;br&gt;&lt;br&gt;1) pair(0) et pair(0) = 0&lt;br&gt;2) pair(0) et impair(1) = -1&lt;br&gt;3) impair(1) et pair(0) = 1&lt;br&gt;4) impair(1) et impair(1) = 0" style="shape=process;whiteSpace=wrap;html=1;backgroundOutline=1;fontFamily=Times New Roman;fontSize=20;" parent="1" vertex="1">
                    <mxGeometry x="480" y="130" width="560" height="160" as="geometry"/>
                </mxCell>
                <mxCell id="439" value="" style="verticalLabelPosition=bottom;verticalAlign=top;html=1;shape=mxgraph.basic.frame;dx=10;labelBorderColor=none;fontFamily=Times New Roman;fontSize=20;strokeColor=#36393d;fillColor=#eeeeee;" parent="1" vertex="1">
                    <mxGeometry x="-200" y="-40" width="600" height="60" as="geometry"/>
                </mxCell>
                <mxCell id="441" value="1" style="shape=or;whiteSpace=wrap;html=1;labelBorderColor=none;fontFamily=Times New Roman;fontSize=20;strokeColor=default;" parent="1" vertex="1">
                    <mxGeometry x="-320" y="-200" width="60" height="80" as="geometry"/>
                </mxCell>
                <mxCell id="497" value="offset: *2,5" style="rounded=0;whiteSpace=wrap;html=1;labelBackgroundColor=#FFFFFF;labelBorderColor=none;fontFamily=Times New Roman;fontSize=16;strokeColor=default;align=left;" parent="1" vertex="1">
                    <mxGeometry x="-1720" y="170" width="80" height="40" as="geometry"/>
                </mxCell>
                <mxCell id="498" value="6" style="ellipse;whiteSpace=wrap;html=1;aspect=fixed;fontSize=24;fontStyle=1;fillColor=none;fontFamily=Times New Roman;" parent="1" vertex="1">
                    <mxGeometry x="-1780" y="610" width="40" height="40" as="geometry"/>
                </mxCell>
                <mxCell id="510" value="1" style="ellipse;whiteSpace=wrap;html=1;aspect=fixed;fontSize=24;fontStyle=1;fillColor=none;fontFamily=Times New Roman;" parent="1" vertex="1">
                    <mxGeometry x="-180" y="110" width="40" height="40" as="geometry"/>
                </mxCell>
                <mxCell id="511" value="2" style="ellipse;whiteSpace=wrap;html=1;aspect=fixed;fontSize=24;fontStyle=1;fillColor=none;fontFamily=Times New Roman;" parent="1" vertex="1">
                    <mxGeometry x="-180" y="150" width="40" height="40" as="geometry"/>
                </mxCell>
                <mxCell id="512" value="3" style="ellipse;whiteSpace=wrap;html=1;aspect=fixed;fontSize=24;fontStyle=1;fillColor=none;fontFamily=Times New Roman;" parent="1" vertex="1">
                    <mxGeometry x="-180" y="190" width="40" height="40" as="geometry"/>
                </mxCell>
                <mxCell id="513" value="4" style="ellipse;whiteSpace=wrap;html=1;aspect=fixed;fontSize=24;fontStyle=1;fillColor=none;fontFamily=Times New Roman;" parent="1" vertex="1">
                    <mxGeometry x="-180" y="230" width="40" height="40" as="geometry"/>
                </mxCell>
                <mxCell id="514" value="5" style="ellipse;whiteSpace=wrap;html=1;aspect=fixed;fontSize=24;fontStyle=1;fillColor=none;fontFamily=Times New Roman;" parent="1" vertex="1">
                    <mxGeometry x="-180" y="270" width="40" height="40" as="geometry"/>
                </mxCell>
                <mxCell id="515" value="0" style="ellipse;whiteSpace=wrap;html=1;aspect=fixed;fontSize=24;fontStyle=1;fillColor=none;fontFamily=Times New Roman;" parent="1" vertex="1">
                    <mxGeometry x="-180" y="70" width="40" height="40" as="geometry"/>
                </mxCell>
                <mxCell id="520" value="6" style="ellipse;whiteSpace=wrap;html=1;aspect=fixed;fontSize=24;fontStyle=1;fillColor=none;fontFamily=Times New Roman;" parent="1" vertex="1">
                    <mxGeometry x="-1620" y="580" width="40" height="40" as="geometry"/>
                </mxCell>
                <mxCell id="521" value="1" style="ellipse;whiteSpace=wrap;html=1;aspect=fixed;fontSize=24;fontStyle=1;fillColor=none;fontFamily=Times New Roman;" parent="1" vertex="1">
                    <mxGeometry x="-1680" y="520" width="40" height="40" as="geometry"/>
                </mxCell>
                <mxCell id="530" style="edgeStyle=none;html=1;fontFamily=Times New Roman;fontSize=20;" parent="1" source="522" target="520" edge="1">
                    <mxGeometry relative="1" as="geometry"/>
                </mxCell>
                <mxCell id="522" value="2" style="ellipse;whiteSpace=wrap;html=1;aspect=fixed;fontSize=24;fontStyle=1;fillColor=none;fontFamily=Times New Roman;" parent="1" vertex="1">
                    <mxGeometry x="-1680" y="580" width="40" height="40" as="geometry"/>
                </mxCell>
                <mxCell id="531" style="edgeStyle=none;html=1;fontFamily=Times New Roman;fontSize=20;" parent="1" source="523" target="527" edge="1">
                    <mxGeometry relative="1" as="geometry"/>
                </mxCell>
                <mxCell id="523" value="3" style="ellipse;whiteSpace=wrap;html=1;aspect=fixed;fontSize=24;fontStyle=1;fillColor=none;fontFamily=Times New Roman;" parent="1" vertex="1">
                    <mxGeometry x="-1680" y="640" width="40" height="40" as="geometry"/>
                </mxCell>
                <mxCell id="524" value="4" style="ellipse;whiteSpace=wrap;html=1;aspect=fixed;fontSize=24;fontStyle=1;fillColor=none;fontFamily=Times New Roman;" parent="1" vertex="1">
                    <mxGeometry x="-1680" y="700" width="40" height="40" as="geometry"/>
                </mxCell>
                <mxCell id="525" value="5" style="ellipse;whiteSpace=wrap;html=1;aspect=fixed;fontSize=24;fontStyle=1;fillColor=none;fontFamily=Times New Roman;" parent="1" vertex="1">
                    <mxGeometry x="-1680" y="760" width="40" height="40" as="geometry"/>
                </mxCell>
                <mxCell id="526" value="0" style="ellipse;whiteSpace=wrap;html=1;aspect=fixed;fontSize=24;fontStyle=1;fillColor=none;fontFamily=Times New Roman;" parent="1" vertex="1">
                    <mxGeometry x="-1680" y="460" width="40" height="40" as="geometry"/>
                </mxCell>
                <mxCell id="527" value="7" style="ellipse;whiteSpace=wrap;html=1;aspect=fixed;fontSize=24;fontStyle=1;fillColor=none;fontFamily=Times New Roman;" parent="1" vertex="1">
                    <mxGeometry x="-1620" y="640" width="40" height="40" as="geometry"/>
                </mxCell>
                <mxCell id="532" value="8" style="ellipse;whiteSpace=wrap;html=1;aspect=fixed;fontSize=24;fontStyle=1;fillColor=none;fontFamily=Times New Roman;" parent="1" vertex="1">
                    <mxGeometry x="-1460" y="670" width="40" height="40" as="geometry"/>
                </mxCell>
                <mxCell id="533" value="6" style="ellipse;whiteSpace=wrap;html=1;aspect=fixed;fontSize=24;fontStyle=1;fillColor=none;fontFamily=Times New Roman;" parent="1" vertex="1">
                    <mxGeometry x="-1460" y="550" width="40" height="40" as="geometry"/>
                </mxCell>
                <mxCell id="534" value="1" style="ellipse;whiteSpace=wrap;html=1;aspect=fixed;fontSize=24;fontStyle=1;fillColor=none;fontFamily=Times New Roman;" parent="1" vertex="1">
                    <mxGeometry x="-1520" y="520" width="40" height="40" as="geometry"/>
                </mxCell>
                <mxCell id="535" value="2" style="ellipse;whiteSpace=wrap;html=1;aspect=fixed;fontSize=24;fontStyle=1;fillColor=none;fontFamily=Times New Roman;" parent="1" vertex="1">
                    <mxGeometry x="-1520" y="580" width="40" height="40" as="geometry"/>
                </mxCell>
                <mxCell id="536" value="3" style="ellipse;whiteSpace=wrap;html=1;aspect=fixed;fontSize=24;fontStyle=1;fillColor=none;fontFamily=Times New Roman;" parent="1" vertex="1">
                    <mxGeometry x="-1520" y="640" width="40" height="40" as="geometry"/>
                </mxCell>
                <mxCell id="537" value="4" style="ellipse;whiteSpace=wrap;html=1;aspect=fixed;fontSize=24;fontStyle=1;fillColor=none;fontFamily=Times New Roman;" parent="1" vertex="1">
                    <mxGeometry x="-1520" y="700" width="40" height="40" as="geometry"/>
                </mxCell>
                <mxCell id="538" value="5" style="ellipse;whiteSpace=wrap;html=1;aspect=fixed;fontSize=24;fontStyle=1;fillColor=none;fontFamily=Times New Roman;" parent="1" vertex="1">
                    <mxGeometry x="-1520" y="760" width="40" height="40" as="geometry"/>
                </mxCell>
                <mxCell id="539" value="0" style="ellipse;whiteSpace=wrap;html=1;aspect=fixed;fontSize=24;fontStyle=1;fillColor=none;fontFamily=Times New Roman;" parent="1" vertex="1">
                    <mxGeometry x="-1520" y="460" width="40" height="40" as="geometry"/>
                </mxCell>
                <mxCell id="540" value="7" style="ellipse;whiteSpace=wrap;html=1;aspect=fixed;fontSize=24;fontStyle=1;fillColor=none;fontFamily=Times New Roman;" parent="1" vertex="1">
                    <mxGeometry x="-1460" y="610" width="40" height="40" as="geometry"/>
                </mxCell>
                <mxCell id="544" value="9" style="ellipse;whiteSpace=wrap;html=1;aspect=fixed;fontSize=24;fontStyle=1;fillColor=none;fontFamily=Times New Roman;" parent="1" vertex="1">
                    <mxGeometry x="-1300" y="700" width="40" height="40" as="geometry"/>
                </mxCell>
                <mxCell id="545" value="8" style="ellipse;whiteSpace=wrap;html=1;aspect=fixed;fontSize=24;fontStyle=1;fillColor=none;fontFamily=Times New Roman;" parent="1" vertex="1">
                    <mxGeometry x="-1300" y="640" width="40" height="40" as="geometry"/>
                </mxCell>
                <mxCell id="546" value="6" style="ellipse;whiteSpace=wrap;html=1;aspect=fixed;fontSize=24;fontStyle=1;fillColor=none;fontFamily=Times New Roman;" parent="1" vertex="1">
                    <mxGeometry x="-1300" y="520" width="40" height="40" as="geometry"/>
                </mxCell>
                <mxCell id="554" style="edgeStyle=none;html=1;fontFamily=Times New Roman;fontSize=20;" parent="1" source="547" target="546" edge="1">
                    <mxGeometry relative="1" as="geometry"/>
                </mxCell>
                <mxCell id="547" value="1" style="ellipse;whiteSpace=wrap;html=1;aspect=fixed;fontSize=24;fontStyle=1;fillColor=none;fontFamily=Times New Roman;" parent="1" vertex="1">
                    <mxGeometry x="-1360" y="520" width="40" height="40" as="geometry"/>
                </mxCell>
                <mxCell id="555" style="edgeStyle=none;html=1;fontFamily=Times New Roman;fontSize=20;" parent="1" source="548" target="553" edge="1">
                    <mxGeometry relative="1" as="geometry"/>
                </mxCell>
                <mxCell id="548" value="2" style="ellipse;whiteSpace=wrap;html=1;aspect=fixed;fontSize=24;fontStyle=1;fillColor=none;fontFamily=Times New Roman;" parent="1" vertex="1">
                    <mxGeometry x="-1360" y="580" width="40" height="40" as="geometry"/>
                </mxCell>
                <mxCell id="556" style="edgeStyle=none;html=1;fontFamily=Times New Roman;fontSize=20;" parent="1" source="549" target="545" edge="1">
                    <mxGeometry relative="1" as="geometry"/>
                </mxCell>
                <mxCell id="549" value="3" style="ellipse;whiteSpace=wrap;html=1;aspect=fixed;fontSize=24;fontStyle=1;fillColor=none;fontFamily=Times New Roman;" parent="1" vertex="1">
                    <mxGeometry x="-1360" y="640" width="40" height="40" as="geometry"/>
                </mxCell>
                <mxCell id="557" style="edgeStyle=none;html=1;fontFamily=Times New Roman;fontSize=20;" parent="1" source="550" target="544" edge="1">
                    <mxGeometry relative="1" as="geometry"/>
                </mxCell>
                <mxCell id="550" value="4" style="ellipse;whiteSpace=wrap;html=1;aspect=fixed;fontSize=24;fontStyle=1;fillColor=none;fontFamily=Times New Roman;" parent="1" vertex="1">
                    <mxGeometry x="-1360" y="700" width="40" height="40" as="geometry"/>
                </mxCell>
                <mxCell id="551" value="5" style="ellipse;whiteSpace=wrap;html=1;aspect=fixed;fontSize=24;fontStyle=1;fillColor=none;fontFamily=Times New Roman;" parent="1" vertex="1">
                    <mxGeometry x="-1360" y="760" width="40" height="40" as="geometry"/>
                </mxCell>
                <mxCell id="552" value="0" style="ellipse;whiteSpace=wrap;html=1;aspect=fixed;fontSize=24;fontStyle=1;fillColor=none;fontFamily=Times New Roman;" parent="1" vertex="1">
                    <mxGeometry x="-1360" y="460" width="40" height="40" as="geometry"/>
                </mxCell>
                <mxCell id="553" value="7" style="ellipse;whiteSpace=wrap;html=1;aspect=fixed;fontSize=24;fontStyle=1;fillColor=none;fontFamily=Times New Roman;" parent="1" vertex="1">
                    <mxGeometry x="-1300" y="580" width="40" height="40" as="geometry"/>
                </mxCell>
                <mxCell id="558" value="" style="html=1;verticalAlign=bottom;startArrow=oval;startFill=1;endArrow=classic;startSize=8;fontFamily=Times New Roman;fontSize=20;endFill=1;" parent="1" target="498" edge="1">
                    <mxGeometry width="60" relative="1" as="geometry">
                        <mxPoint x="-1820" y="630" as="sourcePoint"/>
                        <mxPoint x="-1760" y="630" as="targetPoint"/>
                    </mxGeometry>
                </mxCell>
                <mxCell id="559" value="" style="html=1;verticalAlign=bottom;startArrow=oval;startFill=1;endArrow=classic;startSize=8;fontFamily=Times New Roman;fontSize=20;endFill=1;" parent="1" target="533" edge="1">
                    <mxGeometry width="60" relative="1" as="geometry">
                        <mxPoint x="-1500" y="570" as="sourcePoint"/>
                        <mxPoint x="-1459.9999999999432" y="570" as="targetPoint"/>
                    </mxGeometry>
                </mxCell>
                <mxCell id="561" value="" style="html=1;verticalAlign=bottom;startArrow=oval;startFill=1;endArrow=classic;startSize=8;fontFamily=Times New Roman;fontSize=20;endFill=1;" parent="1" target="540" edge="1">
                    <mxGeometry width="60" relative="1" as="geometry">
                        <mxPoint x="-1500" y="629.82" as="sourcePoint"/>
                        <mxPoint x="-1460" y="629.82" as="targetPoint"/>
                    </mxGeometry>
                </mxCell>
                <mxCell id="563" value="" style="html=1;verticalAlign=bottom;startArrow=oval;startFill=1;endArrow=classic;startSize=8;fontFamily=Times New Roman;fontSize=20;endFill=1;" parent="1" target="532" edge="1">
                    <mxGeometry width="60" relative="1" as="geometry">
                        <mxPoint x="-1500" y="689.9999999999997" as="sourcePoint"/>
                        <mxPoint x="-1460" y="690.18" as="targetPoint"/>
                    </mxGeometry>
                </mxCell>
                <mxCell id="565" value="1" style="rounded=0;whiteSpace=wrap;html=1;labelBackgroundColor=#FFFFFF;labelBorderColor=none;fontFamily=Times New Roman;fontSize=16;strokeColor=default;" parent="1" vertex="1">
                    <mxGeometry x="-1600" y="170" width="80" height="40" as="geometry"/>
                </mxCell>
                <mxCell id="589" value="1" style="ellipse;whiteSpace=wrap;html=1;aspect=fixed;fontSize=24;fontStyle=1;fillColor=none;fontFamily=Times New Roman;" parent="1" vertex="1">
                    <mxGeometry x="-1840" y="1000" width="40" height="40" as="geometry"/>
                </mxCell>
                <mxCell id="590" value="2" style="ellipse;whiteSpace=wrap;html=1;aspect=fixed;fontSize=24;fontStyle=1;fillColor=none;fontFamily=Times New Roman;" parent="1" vertex="1">
                    <mxGeometry x="-1840" y="1060" width="40" height="40" as="geometry"/>
                </mxCell>
                <mxCell id="591" value="3" style="ellipse;whiteSpace=wrap;html=1;aspect=fixed;fontSize=24;fontStyle=1;fillColor=none;fontFamily=Times New Roman;" parent="1" vertex="1">
                    <mxGeometry x="-1840" y="1120" width="40" height="40" as="geometry"/>
                </mxCell>
                <mxCell id="592" value="4" style="ellipse;whiteSpace=wrap;html=1;aspect=fixed;fontSize=24;fontStyle=1;fillColor=#fff2cc;fontFamily=Times New Roman;strokeColor=#000000;" parent="1" vertex="1">
                    <mxGeometry x="-1780" y="1030" width="40" height="40" as="geometry"/>
                </mxCell>
                <mxCell id="594" value="0" style="ellipse;whiteSpace=wrap;html=1;aspect=fixed;fontSize=24;fontStyle=1;fillColor=none;fontFamily=Times New Roman;" parent="1" vertex="1">
                    <mxGeometry x="-1840" y="940" width="40" height="40" as="geometry"/>
                </mxCell>
                <mxCell id="635" style="edgeStyle=none;html=1;fontFamily=Times New Roman;fontSize=12;endArrow=classic;endFill=1;" parent="1" source="597" target="602" edge="1">
                    <mxGeometry relative="1" as="geometry"/>
                </mxCell>
                <mxCell id="597" value="1" style="ellipse;whiteSpace=wrap;html=1;aspect=fixed;fontSize=24;fontStyle=1;fillColor=none;fontFamily=Times New Roman;" parent="1" vertex="1">
                    <mxGeometry x="-1680" y="1000" width="40" height="40" as="geometry"/>
                </mxCell>
                <mxCell id="636" style="edgeStyle=none;html=1;fontFamily=Times New Roman;fontSize=12;endArrow=classic;endFill=1;" parent="1" source="599" target="603" edge="1">
                    <mxGeometry relative="1" as="geometry"/>
                </mxCell>
                <mxCell id="599" value="2" style="ellipse;whiteSpace=wrap;html=1;aspect=fixed;fontSize=24;fontStyle=1;fillColor=none;fontFamily=Times New Roman;" parent="1" vertex="1">
                    <mxGeometry x="-1680" y="1060" width="40" height="40" as="geometry"/>
                </mxCell>
                <mxCell id="601" value="3" style="ellipse;whiteSpace=wrap;html=1;aspect=fixed;fontSize=24;fontStyle=1;fillColor=none;fontFamily=Times New Roman;" parent="1" vertex="1">
                    <mxGeometry x="-1680" y="1120" width="40" height="40" as="geometry"/>
                </mxCell>
                <mxCell id="602" value="4" style="ellipse;whiteSpace=wrap;html=1;aspect=fixed;fontSize=24;fontStyle=1;fillColor=#fff2cc;fontFamily=Times New Roman;strokeColor=#000000;" parent="1" vertex="1">
                    <mxGeometry x="-1620" y="1000" width="40" height="40" as="geometry"/>
                </mxCell>
                <mxCell id="603" value="5" style="ellipse;whiteSpace=wrap;html=1;aspect=fixed;fontSize=24;fontStyle=1;fillColor=none;fontFamily=Times New Roman;" parent="1" vertex="1">
                    <mxGeometry x="-1620" y="1060" width="40" height="40" as="geometry"/>
                </mxCell>
                <mxCell id="604" value="0" style="ellipse;whiteSpace=wrap;html=1;aspect=fixed;fontSize=24;fontStyle=1;fillColor=none;fontFamily=Times New Roman;" parent="1" vertex="1">
                    <mxGeometry x="-1680" y="940" width="40" height="40" as="geometry"/>
                </mxCell>
                <mxCell id="607" value="6" style="ellipse;whiteSpace=wrap;html=1;aspect=fixed;fontSize=24;fontStyle=1;fillColor=none;fontFamily=Times New Roman;" parent="1" vertex="1">
                    <mxGeometry x="-1460" y="1090" width="40" height="40" as="geometry"/>
                </mxCell>
                <mxCell id="608" value="1" style="ellipse;whiteSpace=wrap;html=1;aspect=fixed;fontSize=24;fontStyle=1;fillColor=none;fontFamily=Times New Roman;" parent="1" vertex="1">
                    <mxGeometry x="-1520" y="1000" width="40" height="40" as="geometry"/>
                </mxCell>
                <mxCell id="609" value="2" style="ellipse;whiteSpace=wrap;html=1;aspect=fixed;fontSize=24;fontStyle=1;fillColor=none;fontFamily=Times New Roman;" parent="1" vertex="1">
                    <mxGeometry x="-1520" y="1060" width="40" height="40" as="geometry"/>
                </mxCell>
                <mxCell id="610" value="3" style="ellipse;whiteSpace=wrap;html=1;aspect=fixed;fontSize=24;fontStyle=1;fillColor=none;fontFamily=Times New Roman;" parent="1" vertex="1">
                    <mxGeometry x="-1520" y="1120" width="40" height="40" as="geometry"/>
                </mxCell>
                <mxCell id="611" value="4" style="ellipse;whiteSpace=wrap;html=1;aspect=fixed;fontSize=24;fontStyle=1;fillColor=#fff2cc;fontFamily=Times New Roman;strokeColor=#000000;" parent="1" vertex="1">
                    <mxGeometry x="-1460" y="970" width="40" height="40" as="geometry"/>
                </mxCell>
                <mxCell id="612" value="5" style="ellipse;whiteSpace=wrap;html=1;aspect=fixed;fontSize=24;fontStyle=1;fillColor=none;fontFamily=Times New Roman;" parent="1" vertex="1">
                    <mxGeometry x="-1460" y="1030" width="40" height="40" as="geometry"/>
                </mxCell>
                <mxCell id="613" value="0" style="ellipse;whiteSpace=wrap;html=1;aspect=fixed;fontSize=24;fontStyle=1;fillColor=none;fontFamily=Times New Roman;" parent="1" vertex="1">
                    <mxGeometry x="-1520" y="940" width="40" height="40" as="geometry"/>
                </mxCell>
                <mxCell id="615" value="9" style="ellipse;whiteSpace=wrap;html=1;aspect=fixed;fontSize=24;fontStyle=1;fillColor=none;fontFamily=Times New Roman;" parent="1" vertex="1">
                    <mxGeometry x="-1060" y="1250" width="40" height="40" as="geometry"/>
                </mxCell>
                <mxCell id="616" value="8" style="ellipse;whiteSpace=wrap;html=1;aspect=fixed;fontSize=24;fontStyle=1;fillColor=none;fontFamily=Times New Roman;" parent="1" vertex="1">
                    <mxGeometry x="-1060" y="1190" width="40" height="40" as="geometry"/>
                </mxCell>
                <mxCell id="617" value="6" style="ellipse;whiteSpace=wrap;html=1;aspect=fixed;fontSize=24;fontStyle=1;fillColor=none;fontFamily=Times New Roman;" parent="1" vertex="1">
                    <mxGeometry x="-1060" y="1070" width="40" height="40" as="geometry"/>
                </mxCell>
                <mxCell id="618" style="edgeStyle=none;html=1;fontFamily=Times New Roman;fontSize=20;" parent="1" source="619" target="617" edge="1">
                    <mxGeometry relative="1" as="geometry"/>
                </mxCell>
                <mxCell id="619" value="1" style="ellipse;whiteSpace=wrap;html=1;aspect=fixed;fontSize=24;fontStyle=1;fillColor=none;fontFamily=Times New Roman;" parent="1" vertex="1">
                    <mxGeometry x="-1120" y="1070" width="40" height="40" as="geometry"/>
                </mxCell>
                <mxCell id="620" style="edgeStyle=none;html=1;fontFamily=Times New Roman;fontSize=20;" parent="1" source="621" target="628" edge="1">
                    <mxGeometry relative="1" as="geometry"/>
                </mxCell>
                <mxCell id="621" value="2" style="ellipse;whiteSpace=wrap;html=1;aspect=fixed;fontSize=24;fontStyle=1;fillColor=none;fontFamily=Times New Roman;" parent="1" vertex="1">
                    <mxGeometry x="-1120" y="1130" width="40" height="40" as="geometry"/>
                </mxCell>
                <mxCell id="622" style="edgeStyle=none;html=1;fontFamily=Times New Roman;fontSize=20;" parent="1" source="623" target="616" edge="1">
                    <mxGeometry relative="1" as="geometry"/>
                </mxCell>
                <mxCell id="623" value="3" style="ellipse;whiteSpace=wrap;html=1;aspect=fixed;fontSize=24;fontStyle=1;fillColor=none;fontFamily=Times New Roman;" parent="1" vertex="1">
                    <mxGeometry x="-1120" y="1190" width="40" height="40" as="geometry"/>
                </mxCell>
                <mxCell id="624" style="edgeStyle=none;html=1;fontFamily=Times New Roman;fontSize=20;" parent="1" source="625" target="615" edge="1">
                    <mxGeometry relative="1" as="geometry"/>
                </mxCell>
                <mxCell id="625" value="4" style="ellipse;whiteSpace=wrap;html=1;aspect=fixed;fontSize=24;fontStyle=1;fillColor=none;fontFamily=Times New Roman;" parent="1" vertex="1">
                    <mxGeometry x="-1120" y="1250" width="40" height="40" as="geometry"/>
                </mxCell>
                <mxCell id="626" value="5" style="ellipse;whiteSpace=wrap;html=1;aspect=fixed;fontSize=24;fontStyle=1;fillColor=none;fontFamily=Times New Roman;" parent="1" vertex="1">
                    <mxGeometry x="-1120" y="1310" width="40" height="40" as="geometry"/>
                </mxCell>
                <mxCell id="627" value="0" style="ellipse;whiteSpace=wrap;html=1;aspect=fixed;fontSize=24;fontStyle=1;fillColor=none;fontFamily=Times New Roman;" parent="1" vertex="1">
                    <mxGeometry x="-1120" y="1010" width="40" height="40" as="geometry"/>
                </mxCell>
                <mxCell id="628" value="7" style="ellipse;whiteSpace=wrap;html=1;aspect=fixed;fontSize=24;fontStyle=1;fillColor=none;fontFamily=Times New Roman;" parent="1" vertex="1">
                    <mxGeometry x="-1060" y="1130" width="40" height="40" as="geometry"/>
                </mxCell>
                <mxCell id="629" value="" style="html=1;verticalAlign=bottom;startArrow=oval;startFill=1;endArrow=classic;startSize=8;fontFamily=Times New Roman;fontSize=20;endFill=1;" parent="1" edge="1">
                    <mxGeometry width="60" relative="1" as="geometry">
                        <mxPoint x="-1820" y="1049.82" as="sourcePoint"/>
                        <mxPoint x="-1780" y="1049.82" as="targetPoint"/>
                    </mxGeometry>
                </mxCell>
                <mxCell id="630" value="" style="html=1;verticalAlign=bottom;startArrow=oval;startFill=1;endArrow=classic;startSize=8;fontFamily=Times New Roman;fontSize=20;endFill=1;" parent="1" edge="1">
                    <mxGeometry width="60" relative="1" as="geometry">
                        <mxPoint x="-1500" y="1050" as="sourcePoint"/>
                        <mxPoint x="-1460" y="1050" as="targetPoint"/>
                    </mxGeometry>
                </mxCell>
                <mxCell id="631" value="" style="html=1;verticalAlign=bottom;startArrow=oval;startFill=1;endArrow=classic;startSize=8;fontFamily=Times New Roman;fontSize=20;endFill=1;" parent="1" edge="1">
                    <mxGeometry width="60" relative="1" as="geometry">
                        <mxPoint x="-1500" y="1109.8200000000002" as="sourcePoint"/>
                        <mxPoint x="-1460" y="1110" as="targetPoint"/>
                    </mxGeometry>
                </mxCell>
                <mxCell id="632" value="" style="html=1;verticalAlign=bottom;startArrow=oval;startFill=1;endArrow=classic;startSize=8;fontFamily=Times New Roman;fontSize=20;endFill=1;" parent="1" edge="1">
                    <mxGeometry width="60" relative="1" as="geometry">
                        <mxPoint x="-1500" y="989.5199999999995" as="sourcePoint"/>
                        <mxPoint x="-1460" y="989.52" as="targetPoint"/>
                    </mxGeometry>
                </mxCell>
                <mxCell id="567" value="objets" style="" parent="0"/>
                <mxCell id="568" value="" style="shape=crossbar;whiteSpace=wrap;html=1;rounded=1;direction=south;labelBackgroundColor=none;labelBorderColor=none;fontFamily=Times New Roman;fontSize=20;strokeColor=default;" parent="567" vertex="1">
                    <mxGeometry x="-1860" y="480" width="20" height="60" as="geometry"/>
                </mxCell>
                <mxCell id="569" value="" style="shape=crossbar;whiteSpace=wrap;html=1;rounded=1;direction=south;labelBackgroundColor=none;labelBorderColor=none;fontFamily=Times New Roman;fontSize=20;strokeColor=default;" parent="567" vertex="1">
                    <mxGeometry x="-1860" y="540" width="20" height="60" as="geometry"/>
                </mxCell>
                <mxCell id="570" value="" style="shape=crossbar;whiteSpace=wrap;html=1;rounded=1;direction=south;labelBackgroundColor=none;labelBorderColor=none;fontFamily=Times New Roman;fontSize=20;strokeColor=default;" parent="567" vertex="1">
                    <mxGeometry x="-1850" y="600" width="10" height="30" as="geometry"/>
                </mxCell>
                <mxCell id="571" value="1" style="text;html=1;strokeColor=default;fillColor=none;align=center;verticalAlign=middle;whiteSpace=wrap;rounded=0;labelBackgroundColor=none;labelBorderColor=none;fontFamily=Times New Roman;fontSize=20;" parent="567" vertex="1">
                    <mxGeometry x="-1870" y="495" width="20" height="30" as="geometry"/>
                </mxCell>
                <mxCell id="572" value="1" style="text;html=1;strokeColor=default;fillColor=none;align=center;verticalAlign=middle;whiteSpace=wrap;rounded=0;labelBackgroundColor=none;labelBorderColor=none;fontFamily=Times New Roman;fontSize=20;" parent="567" vertex="1">
                    <mxGeometry x="-1870" y="555" width="20" height="30" as="geometry"/>
                </mxCell>
                <mxCell id="573" value="0.5" style="text;html=1;strokeColor=default;fillColor=none;align=center;verticalAlign=middle;whiteSpace=wrap;rounded=0;labelBackgroundColor=none;labelBorderColor=none;fontFamily=Times New Roman;fontSize=12;" parent="567" vertex="1">
                    <mxGeometry x="-1870" y="605" width="20" height="20" as="geometry"/>
                </mxCell>
                <mxCell id="575" value="" style="shape=crossbar;whiteSpace=wrap;html=1;rounded=1;direction=south;labelBackgroundColor=none;labelBorderColor=none;fontFamily=Times New Roman;fontSize=20;strokeColor=default;" parent="567" vertex="1">
                    <mxGeometry x="-1700" y="480" width="20" height="60" as="geometry"/>
                </mxCell>
                <mxCell id="576" value="" style="shape=crossbar;whiteSpace=wrap;html=1;rounded=1;direction=south;labelBackgroundColor=none;labelBorderColor=none;fontFamily=Times New Roman;fontSize=20;strokeColor=default;" parent="567" vertex="1">
                    <mxGeometry x="-1700" y="540" width="20" height="60" as="geometry"/>
                </mxCell>
                <mxCell id="578" value="1" style="text;html=1;strokeColor=default;fillColor=none;align=center;verticalAlign=middle;whiteSpace=wrap;rounded=0;labelBackgroundColor=none;labelBorderColor=none;fontFamily=Times New Roman;fontSize=20;" parent="567" vertex="1">
                    <mxGeometry x="-1710" y="495" width="20" height="30" as="geometry"/>
                </mxCell>
                <mxCell id="579" value="1" style="text;html=1;strokeColor=default;fillColor=none;align=center;verticalAlign=middle;whiteSpace=wrap;rounded=0;labelBackgroundColor=none;labelBorderColor=none;fontFamily=Times New Roman;fontSize=20;" parent="567" vertex="1">
                    <mxGeometry x="-1710" y="555" width="20" height="30" as="geometry"/>
                </mxCell>
                <mxCell id="639" value="" style="group" parent="567" vertex="1" connectable="0">
                    <mxGeometry x="-1785" y="820" width="25" height="30" as="geometry"/>
                </mxCell>
                <mxCell id="637" value="" style="shape=crossbar;whiteSpace=wrap;html=1;rounded=1;direction=south;labelBackgroundColor=none;labelBorderColor=none;fontFamily=Times New Roman;fontSize=20;strokeColor=default;" parent="639" vertex="1">
                    <mxGeometry x="15" width="10" height="30" as="geometry"/>
                </mxCell>
                <mxCell id="638" value="0.5" style="text;html=1;strokeColor=default;fillColor=none;align=center;verticalAlign=middle;whiteSpace=wrap;rounded=0;labelBackgroundColor=none;labelBorderColor=none;fontFamily=Times New Roman;fontSize=12;strokeWidth=0.5;" parent="639" vertex="1">
                    <mxGeometry y="5" width="20" height="20" as="geometry"/>
                </mxCell>
                <mxCell id="640" value="" style="group" parent="567" vertex="1" connectable="0">
                    <mxGeometry x="-1545" y="960" width="25" height="30" as="geometry"/>
                </mxCell>
                <mxCell id="641" value="" style="shape=crossbar;whiteSpace=wrap;html=1;rounded=1;direction=south;labelBackgroundColor=none;labelBorderColor=none;fontFamily=Times New Roman;fontSize=20;strokeColor=default;" parent="640" vertex="1">
                    <mxGeometry x="15" width="10" height="30" as="geometry"/>
                </mxCell>
                <mxCell id="642" value="0.5" style="text;html=1;strokeColor=default;fillColor=none;align=center;verticalAlign=middle;whiteSpace=wrap;rounded=0;labelBackgroundColor=none;labelBorderColor=none;fontFamily=Times New Roman;fontSize=12;strokeWidth=0.5;" parent="640" vertex="1">
                    <mxGeometry y="5" width="20" height="20" as="geometry"/>
                </mxCell>
                <mxCell id="645" value="" style="group" parent="567" vertex="1" connectable="0">
                    <mxGeometry x="-1360" y="850" width="30" height="60" as="geometry"/>
                </mxCell>
                <mxCell id="643" value="" style="shape=crossbar;whiteSpace=wrap;html=1;rounded=1;direction=south;labelBackgroundColor=none;labelBorderColor=none;fontFamily=Times New Roman;fontSize=20;strokeColor=default;" parent="645" vertex="1">
                    <mxGeometry x="10" width="20" height="60" as="geometry"/>
                </mxCell>
                <mxCell id="644" value="1" style="text;html=1;strokeColor=default;fillColor=none;align=center;verticalAlign=middle;whiteSpace=wrap;rounded=0;labelBackgroundColor=none;labelBorderColor=none;fontFamily=Times New Roman;fontSize=20;" parent="645" vertex="1">
                    <mxGeometry y="15" width="20" height="30" as="geometry"/>
                </mxCell>
                <mxCell id="646" value="" style="group" parent="567" vertex="1" connectable="0">
                    <mxGeometry x="-1710" y="960" width="30" height="60" as="geometry"/>
                </mxCell>
                <mxCell id="647" value="" style="shape=crossbar;whiteSpace=wrap;html=1;rounded=1;direction=south;labelBackgroundColor=none;labelBorderColor=none;fontFamily=Times New Roman;fontSize=20;strokeColor=default;" parent="646" vertex="1">
                    <mxGeometry x="10" width="20" height="60" as="geometry"/>
                </mxCell>
                <mxCell id="648" value="1" style="text;html=1;strokeColor=default;fillColor=none;align=center;verticalAlign=middle;whiteSpace=wrap;rounded=0;labelBackgroundColor=none;labelBorderColor=none;fontFamily=Times New Roman;fontSize=20;" parent="646" vertex="1">
                    <mxGeometry y="15" width="20" height="30" as="geometry"/>
                </mxCell>
                <mxCell id="649" value="" style="group" parent="567" vertex="1" connectable="0">
                    <mxGeometry x="-1870" y="960" width="30" height="60" as="geometry"/>
                </mxCell>
                <mxCell id="650" value="" style="shape=crossbar;whiteSpace=wrap;html=1;rounded=1;direction=south;labelBackgroundColor=none;labelBorderColor=none;fontFamily=Times New Roman;fontSize=20;strokeColor=default;" parent="649" vertex="1">
                    <mxGeometry x="10" width="20" height="60" as="geometry"/>
                </mxCell>
                <mxCell id="651" value="1" style="text;html=1;strokeColor=default;fillColor=none;align=center;verticalAlign=middle;whiteSpace=wrap;rounded=0;labelBackgroundColor=none;labelBorderColor=none;fontFamily=Times New Roman;fontSize=20;" parent="649" vertex="1">
                    <mxGeometry y="15" width="20" height="30" as="geometry"/>
                </mxCell>
                <mxCell id="652" value="" style="group" parent="567" vertex="1" connectable="0">
                    <mxGeometry x="-1865" y="1020" width="25" height="30" as="geometry"/>
                </mxCell>
                <mxCell id="653" value="" style="shape=crossbar;whiteSpace=wrap;html=1;rounded=1;direction=south;labelBackgroundColor=none;labelBorderColor=none;fontFamily=Times New Roman;fontSize=20;strokeColor=default;" parent="652" vertex="1">
                    <mxGeometry x="15" width="10" height="30" as="geometry"/>
                </mxCell>
                <mxCell id="654" value="0.5" style="text;html=1;strokeColor=default;fillColor=none;align=center;verticalAlign=middle;whiteSpace=wrap;rounded=0;labelBackgroundColor=none;labelBorderColor=none;fontFamily=Times New Roman;fontSize=12;strokeWidth=0.5;" parent="652" vertex="1">
                    <mxGeometry y="5" width="20" height="20" as="geometry"/>
                </mxCell>
                <mxCell id="660" value="1" style="ellipse;whiteSpace=wrap;html=1;aspect=fixed;fontSize=24;fontStyle=1;fillColor=none;fontFamily=Times New Roman;" parent="567" vertex="1">
                    <mxGeometry x="-1841" y="1391" width="40" height="40" as="geometry"/>
                </mxCell>
                <mxCell id="661" value="2" style="ellipse;whiteSpace=wrap;html=1;aspect=fixed;fontSize=24;fontStyle=1;fillColor=none;fontFamily=Times New Roman;" parent="567" vertex="1">
                    <mxGeometry x="-1841" y="1451" width="40" height="40" as="geometry"/>
                </mxCell>
                <mxCell id="662" value="3" style="ellipse;whiteSpace=wrap;html=1;aspect=fixed;fontSize=24;fontStyle=1;fillColor=none;fontFamily=Times New Roman;" parent="567" vertex="1">
                    <mxGeometry x="-1841" y="1511" width="40" height="40" as="geometry"/>
                </mxCell>
                <mxCell id="663" value="4" style="ellipse;whiteSpace=wrap;html=1;aspect=fixed;fontSize=24;fontStyle=1;fillColor=#fff2cc;fontFamily=Times New Roman;strokeColor=#000000;" parent="567" vertex="1">
                    <mxGeometry x="-1781" y="1421" width="40" height="40" as="geometry"/>
                </mxCell>
                <mxCell id="664" value="0" style="ellipse;whiteSpace=wrap;html=1;aspect=fixed;fontSize=24;fontStyle=1;fillColor=none;fontFamily=Times New Roman;" parent="567" vertex="1">
                    <mxGeometry x="-1841" y="1331" width="40" height="40" as="geometry"/>
                </mxCell>
                <mxCell id="665" style="edgeStyle=none;html=1;fontFamily=Times New Roman;fontSize=12;endArrow=classic;endFill=1;" parent="567" source="666" target="670" edge="1">
                    <mxGeometry relative="1" as="geometry"/>
                </mxCell>
                <mxCell id="666" value="1" style="ellipse;whiteSpace=wrap;html=1;aspect=fixed;fontSize=24;fontStyle=1;fillColor=none;fontFamily=Times New Roman;" parent="567" vertex="1">
                    <mxGeometry x="-1681" y="1391" width="40" height="40" as="geometry"/>
                </mxCell>
                <mxCell id="667" style="edgeStyle=none;html=1;fontFamily=Times New Roman;fontSize=12;endArrow=classic;endFill=1;" parent="567" source="668" target="671" edge="1">
                    <mxGeometry relative="1" as="geometry"/>
                </mxCell>
                <mxCell id="668" value="2" style="ellipse;whiteSpace=wrap;html=1;aspect=fixed;fontSize=24;fontStyle=1;fillColor=none;fontFamily=Times New Roman;" parent="567" vertex="1">
                    <mxGeometry x="-1681" y="1451" width="40" height="40" as="geometry"/>
                </mxCell>
                <mxCell id="669" value="3" style="ellipse;whiteSpace=wrap;html=1;aspect=fixed;fontSize=24;fontStyle=1;fillColor=none;fontFamily=Times New Roman;" parent="567" vertex="1">
                    <mxGeometry x="-1681" y="1511" width="40" height="40" as="geometry"/>
                </mxCell>
                <mxCell id="670" value="4" style="ellipse;whiteSpace=wrap;html=1;aspect=fixed;fontSize=24;fontStyle=1;fillColor=#fff2cc;fontFamily=Times New Roman;strokeColor=#000000;" parent="567" vertex="1">
                    <mxGeometry x="-1621" y="1391" width="40" height="40" as="geometry"/>
                </mxCell>
                <mxCell id="671" value="5" style="ellipse;whiteSpace=wrap;html=1;aspect=fixed;fontSize=24;fontStyle=1;fillColor=none;fontFamily=Times New Roman;" parent="567" vertex="1">
                    <mxGeometry x="-1621" y="1451" width="40" height="40" as="geometry"/>
                </mxCell>
                <mxCell id="672" value="0" style="ellipse;whiteSpace=wrap;html=1;aspect=fixed;fontSize=24;fontStyle=1;fillColor=none;fontFamily=Times New Roman;" parent="567" vertex="1">
                    <mxGeometry x="-1681" y="1331" width="40" height="40" as="geometry"/>
                </mxCell>
                <mxCell id="673" value="6" style="ellipse;whiteSpace=wrap;html=1;aspect=fixed;fontSize=24;fontStyle=1;fillColor=none;fontFamily=Times New Roman;" parent="567" vertex="1">
                    <mxGeometry x="-1461" y="1481" width="40" height="40" as="geometry"/>
                </mxCell>
                <mxCell id="674" value="1" style="ellipse;whiteSpace=wrap;html=1;aspect=fixed;fontSize=24;fontStyle=1;fillColor=none;fontFamily=Times New Roman;" parent="567" vertex="1">
                    <mxGeometry x="-1521" y="1391" width="40" height="40" as="geometry"/>
                </mxCell>
                <mxCell id="675" value="2" style="ellipse;whiteSpace=wrap;html=1;aspect=fixed;fontSize=24;fontStyle=1;fillColor=none;fontFamily=Times New Roman;" parent="567" vertex="1">
                    <mxGeometry x="-1521" y="1451" width="40" height="40" as="geometry"/>
                </mxCell>
                <mxCell id="676" value="3" style="ellipse;whiteSpace=wrap;html=1;aspect=fixed;fontSize=24;fontStyle=1;fillColor=none;fontFamily=Times New Roman;" parent="567" vertex="1">
                    <mxGeometry x="-1521" y="1511" width="40" height="40" as="geometry"/>
                </mxCell>
                <mxCell id="677" value="4" style="ellipse;whiteSpace=wrap;html=1;aspect=fixed;fontSize=24;fontStyle=1;fillColor=#fff2cc;fontFamily=Times New Roman;strokeColor=#000000;" parent="567" vertex="1">
                    <mxGeometry x="-1461" y="1361" width="40" height="40" as="geometry"/>
                </mxCell>
                <mxCell id="678" value="5" style="ellipse;whiteSpace=wrap;html=1;aspect=fixed;fontSize=24;fontStyle=1;fillColor=none;fontFamily=Times New Roman;" parent="567" vertex="1">
                    <mxGeometry x="-1461" y="1421" width="40" height="40" as="geometry"/>
                </mxCell>
                <mxCell id="679" value="0" style="ellipse;whiteSpace=wrap;html=1;aspect=fixed;fontSize=24;fontStyle=1;fillColor=none;fontFamily=Times New Roman;" parent="567" vertex="1">
                    <mxGeometry x="-1521" y="1331" width="40" height="40" as="geometry"/>
                </mxCell>
                <mxCell id="680" value="" style="html=1;verticalAlign=bottom;startArrow=oval;startFill=1;endArrow=classic;startSize=8;fontFamily=Times New Roman;fontSize=20;endFill=1;" parent="567" edge="1">
                    <mxGeometry width="60" relative="1" as="geometry">
                        <mxPoint x="-1821" y="1440.82" as="sourcePoint"/>
                        <mxPoint x="-1781" y="1440.82" as="targetPoint"/>
                    </mxGeometry>
                </mxCell>
                <mxCell id="681" value="" style="html=1;verticalAlign=bottom;startArrow=oval;startFill=1;endArrow=classic;startSize=8;fontFamily=Times New Roman;fontSize=20;endFill=1;" parent="567" edge="1">
                    <mxGeometry width="60" relative="1" as="geometry">
                        <mxPoint x="-1501" y="1441.0000000000002" as="sourcePoint"/>
                        <mxPoint x="-1461" y="1441.0000000000002" as="targetPoint"/>
                    </mxGeometry>
                </mxCell>
                <mxCell id="682" value="" style="html=1;verticalAlign=bottom;startArrow=oval;startFill=1;endArrow=classic;startSize=8;fontFamily=Times New Roman;fontSize=20;endFill=1;" parent="567" edge="1">
                    <mxGeometry width="60" relative="1" as="geometry">
                        <mxPoint x="-1501" y="1500.82" as="sourcePoint"/>
                        <mxPoint x="-1461" y="1501.0000000000002" as="targetPoint"/>
                    </mxGeometry>
                </mxCell>
                <mxCell id="683" value="" style="html=1;verticalAlign=bottom;startArrow=oval;startFill=1;endArrow=classic;startSize=8;fontFamily=Times New Roman;fontSize=20;endFill=1;" parent="567" edge="1">
                    <mxGeometry width="60" relative="1" as="geometry">
                        <mxPoint x="-1501" y="1380.5199999999995" as="sourcePoint"/>
                        <mxPoint x="-1461" y="1380.5200000000004" as="targetPoint"/>
                    </mxGeometry>
                </mxCell>
                <mxCell id="684" value="" style="group" parent="567" vertex="1" connectable="0">
                    <mxGeometry x="-1546" y="1351" width="25" height="30" as="geometry"/>
                </mxCell>
                <mxCell id="685" value="" style="shape=crossbar;whiteSpace=wrap;html=1;rounded=1;direction=south;labelBackgroundColor=none;labelBorderColor=none;fontFamily=Times New Roman;fontSize=20;strokeColor=default;" parent="684" vertex="1">
                    <mxGeometry x="15" width="10" height="30" as="geometry"/>
                </mxCell>
                <mxCell id="686" value="0.5" style="text;html=1;strokeColor=#000000;fillColor=#e51400;align=center;verticalAlign=middle;whiteSpace=wrap;rounded=0;labelBackgroundColor=none;labelBorderColor=none;fontFamily=Times New Roman;fontSize=12;strokeWidth=0.5;fontColor=#ffffff;" parent="684" vertex="1">
                    <mxGeometry x="-4" y="5" width="20" height="20" as="geometry"/>
                </mxCell>
                <mxCell id="687" value="" style="group" parent="567" vertex="1" connectable="0">
                    <mxGeometry x="-1711" y="1351" width="30" height="60" as="geometry"/>
                </mxCell>
                <mxCell id="688" value="" style="shape=crossbar;whiteSpace=wrap;html=1;rounded=1;direction=south;labelBackgroundColor=none;labelBorderColor=none;fontFamily=Times New Roman;fontSize=20;strokeColor=default;" parent="687" vertex="1">
                    <mxGeometry x="10" width="20" height="60" as="geometry"/>
                </mxCell>
                <mxCell id="689" value="1" style="text;html=1;strokeColor=default;fillColor=none;align=center;verticalAlign=middle;whiteSpace=wrap;rounded=0;labelBackgroundColor=none;labelBorderColor=none;fontFamily=Times New Roman;fontSize=20;" parent="687" vertex="1">
                    <mxGeometry x="-3" y="16" width="20" height="30" as="geometry"/>
                </mxCell>
                <mxCell id="690" value="" style="group" parent="567" vertex="1" connectable="0">
                    <mxGeometry x="-1871" y="1351" width="30" height="60" as="geometry"/>
                </mxCell>
                <mxCell id="691" value="" style="shape=crossbar;whiteSpace=wrap;html=1;rounded=1;direction=south;labelBackgroundColor=none;labelBorderColor=none;fontFamily=Times New Roman;fontSize=20;strokeColor=default;" parent="690" vertex="1">
                    <mxGeometry x="10" width="20" height="60" as="geometry"/>
                </mxCell>
                <mxCell id="692" value="1" style="text;html=1;strokeColor=default;fillColor=none;align=center;verticalAlign=middle;whiteSpace=wrap;rounded=0;labelBackgroundColor=none;labelBorderColor=none;fontFamily=Times New Roman;fontSize=20;" parent="690" vertex="1">
                    <mxGeometry x="-3" y="15" width="20" height="30" as="geometry"/>
                </mxCell>
                <mxCell id="693" value="" style="group" parent="567" vertex="1" connectable="0">
                    <mxGeometry x="-1866" y="1411" width="25" height="30" as="geometry"/>
                </mxCell>
                <mxCell id="694" value="" style="shape=crossbar;whiteSpace=wrap;html=1;rounded=1;direction=south;labelBackgroundColor=none;labelBorderColor=none;fontFamily=Times New Roman;fontSize=20;strokeColor=default;" parent="693" vertex="1">
                    <mxGeometry x="15" width="10" height="30" as="geometry"/>
                </mxCell>
                <mxCell id="695" value="0.5" style="text;html=1;strokeColor=#000000;fillColor=#e51400;align=center;verticalAlign=middle;whiteSpace=wrap;rounded=0;labelBackgroundColor=none;labelBorderColor=none;fontFamily=Times New Roman;fontSize=12;strokeWidth=0.5;fontColor=#ffffff;" parent="693" vertex="1">
                    <mxGeometry x="-3" y="5" width="20" height="20" as="geometry"/>
                </mxCell>
            </root>
        </mxGraphModel>
    </diagram>
</mxfile>